<?xml version="1.0" encoding="UTF-8"?>
<svg xmlns="http://www.w3.org/2000/svg" xmlns:xlink="http://www.w3.org/1999/xlink" width="150pt" height="75pt" viewBox="0 0 150 75" version="1.1">
<g id="surface1">
<path style=" stroke:none;fill-rule:nonzero;fill:rgb(17.647059%,24.313725%,31.372549%);fill-opacity:1;" d="M 142.058594 27.273438 C 128.59375 11.3125 94.5 2.3125 60.546875 5.75 C 26.597656 9.191406 2.195312 24.117188 2.21875 41.4375 L 2.21875 63.605469 L 2.238281 63.605469 C 2.289062 65.136719 3.886719 66.550781 6.484375 67.363281 L 14.757812 69.949219 L 26.949219 69.949219 C 29.113281 69.949219 30.867188 69.074219 30.867188 67.992188 L 30.867188 47.972656 C 30.867188 46.890625 29.113281 46.015625 26.949219 46.015625 L 17.464844 46.015625 L 17.464844 41.4375 C 17.480469 25.558594 43.234375 12.683594 75 12.683594 C 106.765625 12.683594 132.519531 25.558594 132.535156 41.4375 L 132.535156 46.015625 L 123.050781 46.015625 C 120.886719 46.015625 119.132812 46.890625 119.132812 47.972656 L 119.132812 67.992188 C 119.132812 69.074219 120.886719 69.949219 123.050781 69.949219 L 135.242188 69.949219 L 143.515625 67.363281 C 146.113281 66.550781 147.710938 65.136719 147.761719 63.605469 L 147.78125 63.605469 L 147.78125 41.4375 C 147.800781 36.574219 145.851562 31.753906 142.058594 27.273438 Z M 142.058594 27.273438 "/>
</g>
</svg>
