<?xml version="1.0" encoding="UTF-8" standalone="no"?> <svg id="Layer_1" data-name="Layer 1" xmlns="http://www.w3.org/2000/svg" viewBox="0 0 128 128"><defs><style>.cls-1{fill:#2d3e50;}</style></defs><title>n</title><path class="cls-1" d="M121.22424,46.54664A62.10708,62.10708,0,0,0,1.89293,70.72307V108.555h.01645A7.71427,7.71427,0,0,0,5.533,114.96776l7.06182,4.41474H22.99758a3.34059,3.34059,0,0,0,3.341-3.341V81.8721a3.34059,3.34059,0,0,0-3.341-3.341h-8.0937V70.72307a49.09613,49.09613,0,0,1,98.19225,0v7.80806h-8.09368a3.3406,3.3406,0,0,0-3.341,3.341v34.16943a3.3406,3.3406,0,0,0,3.341,3.341h10.40274l7.0618-4.41474a7.71419,7.71419,0,0,0,3.62362-6.41275h.01647V70.72307A61.7452,61.7452,0,0,0,121.22424,46.54664Z"/></svg>