<svg id="SvgjsSvg1001" width="288" height="288" xmlns="http://www.w3.org/2000/svg" version="1.1" xmlns:xlink="http://www.w3.org/1999/xlink" xmlns:svgjs="http://svgjs.com/svgjs"><defs id="SvgjsDefs1002"></defs><g id="SvgjsG1008" transform="matrix(1,0,0,1,0,0)"><svg xmlns="http://www.w3.org/2000/svg" width="288" height="288" viewBox="0 0 3733.333 2666.667"><g transform="matrix(.13333 0 0 -.13333 0 2666.667)" fill="#000000" class="color000 svgShape"><path fill="#ffffff" d="M 16300,0 H 0 V 11642.9 H 16300 V 0" transform="scale(1.71779)" class="colorfff svgShape"></path><path fill="#f7cc7f" d="M6382.25 10896.1c13.62-5.9 27.98-9.4 42.71-11.5-4.96 32.7.36 72.4 31.07 115.2-12.37 15.9-24.75 31.9-37.07 47.9-25.93-34.2-56.25-90.7-36.71-151.6M6663.49 10842.7c-48.75 65.9-101.09 134.9-152.97 203.5-3.67-1.7-6.06-2.9-5.55-2.6-19.91-12.1-21.9-14.5-21.79-14.4-12.79-10.3-20.54-20.5-20.46-20.4-2.39-3-4.55-6-6.69-9 57.3-73.9 114.46-146.6 166.37-213.4 16.83 16.4 30.7 35.7 41.09 56.3M6831.67 10490.3c-.25.6 32.77-69.6-2.95-110.1 0 0-39.58-47.5-71.52 15.2.09-.1-3.13 4.2-3.22 4.3-6.95 9.4-20.1 11.7-30.24 5-10.67-6.9-11.96-20.1-7.35-31.8 2.53-6.4 7.66-16.3 21.02-27.3 78.01-63.8 172.93 17.4 161.81 110.3-6.53 57.7-83.83 177.5-186.27 319.2-13.37-17.2-28.16-33.7-44.21-48.7 85.3-111 149.15-198.6 162.93-236.1" class="colorf7cc7f svgShape"></path><path fill="#f7cc7f" d="M6622.4 10786.4c16-20.6 31.49-40.6 46.34-60 16.05 15 30.84 31.5 44.21 48.7-15.93 22.1-32.48 44.6-49.46 67.6-10.39-20.6-24.26-39.9-41.09-56.3M6418.96 11047.7c15.94 21.1 30.2 33.7 30.17 33.6 7.29 6.3 14.71 11.8 22.22 16.8-44.67 59.2-88.21 117.4-127.93 172.2-10.09-31.9-18.38-61.9-25.11-90.1 32.46-43.5 66.37-88 100.65-132.5" class="colorf7cc7f svgShape"></path><path fill="#f7cc7f" d="m 6251.93,11270.8 c 21.14,-29.5 43.38,-59.7 66.38,-90.6 6.73,28.2 15.02,58.2 25.11,90.1 -22.71,31.3 -44.17,61.5 -63.89,90.2 -8.32,-30.1 -17.82,-59.9 -27.6,-89.7" class="colorf7cc7f svgShape"></path><path fill="#f7cc7f" d="m 6397.33,10759.2 c -30.32,15.6 -154.95,102.9 -79.02,421 -23,30.9 -45.24,61.1 -66.38,90.6 -11.54,-35.2 -23.35,-70.2 -33.74,-105.5 -25.1,-85.3 -46.43,-176.4 -34.04,-263.9 16.14,-114 98.91,-197.2 201.43,-237 53.34,-20.7 114.01,-26.5 170.71,-7.4 41.73,14 79.68,38.8 112.45,69.4 -14.85,19.4 -30.34,39.4 -46.34,60 -52.16,-51 -132.59,-74.8 -225.07,-27.2" class="colorf7cc7f svgShape"></path><path fill="#f7cc7f" d="M6278.13 11682.8c-70.89 37.3-221.09 40.7-208.61-90.6 5.64-59.4 81.03-180.3 182.41-321.4 9.78 29.8 19.28 59.6 27.6 89.7-101.01 146.8-156.38 253.2-99.13 260.1 33.97 4.1 76.47-13.1 102.44-53.5 27.73-43.2 20.8-101.4 10.41-151-3.91-18.7-8.63-37.2-13.72-55.6 19.72-28.7 41.18-58.9 63.89-90.2 4.33 13.7 8.98 27.8 13.99 42.3 31.54 90.9 36.51 201.9 13.63 262 .05-.1-23.71 71.8-92.91 108.2M6531.88 11054.3c-3.91-1.1 27.41 8.9 56.06 4.1-11.79 1.6 60.51 2.2 89.35-80.3 14.6-41.8 8.24-91.6-13.8-135.4 16.98-23 33.53-45.5 49.46-67.6 2.16 2.8 4.3 5.6 6.37 8.4 152.56 206.8-73.8 429.6-247.97 314.6 12.98-17.2 26.06-34.5 39.17-51.9 5.89 2.7 15.11 6.7 21.36 8.1" class="colorf7cc7f svgShape"></path><path fill="#f7cc7f" d="M6418.96 11047.7c12.32-16 24.7-32 37.07-47.9 2.14 3 4.3 6 6.69 9-.08-.1 7.67 10.1 20.46 20.4-.11-.1 1.88 2.3 21.79 14.4-.51-.3 1.88.9 5.55 2.6-13.11 17.4-26.19 34.7-39.17 51.9-7.51-5-14.93-10.5-22.22-16.8.03.1-14.23-12.5-30.17-33.6M6491.99 10936.9c31.13-33.3 37.12-78.3 13.39-100.5-23.72-22.1-68.18-13.1-99.31 20.2-31.11 33.3-37.11 78.3-13.38 100.4 23.72 22.2 68.18 13.2 99.3-20.1M6811.37 10436.9c31.12-33.3 37.12-78.3 13.39-100.5-23.72-22.1-68.19-13.1-99.31 20.2-31.12 33.3-37.12 78.3-13.39 100.5 23.73 22.1 68.18 13.1 99.31-20.2" class="colorf7cc7f svgShape"></path><path fill="#486fb4" d="m 16201.2,6338.7 h -1346.7 v 2652.4 h 1346.7 V 6338.7" class="colorf47458 svgShape"></path><path fill="#33538b" d="m 16201.2,7618.4 c -12,0.3 -24,0.5 -36,0.5 H 14854.5 V 6338.7 h 1346.7 v 1279.7" class="colorb75742 svgShape"></path><path fill="#486fb4" d="m 12215.5,4040.75 v 1468.84 c 0,704.73 571.3,1276 1276,1276 H 15024 c 704.7,0 1276,-571.27 1276,-1276 V 4040.75 c 0,-704.64 -571.3,-1276 -1276,-1276 h -1532.5 c -704.7,0 -1276,571.36 -1276,1276" transform="scale(1.0797)" class="colorf47458 svgShape"></path><path fill="#33538b" d="m 13140.7,4298.47 v 1197.59 c 0,552.9 448.3,1001.18 1001.2,1001.18 h 1157 c 552.9,0 1001.1,-448.28 1001.1,-1001.18 V 4298.47 c 0,-552.89 -448.2,-1001.08 -1001.1,-1001.08 h -1157 c -552.9,0 -1001.2,448.19 -1001.2,1001.08" transform="scale(1.04577)" class="colorb75742 svgShape"></path><path fill="#486fb4" d="M14877.5 5872.9c-58.7 0-106.2-47.5-106.2-106.2 0-58.6 47.5-106.1 106.2-106.1 58.6 0 106.1 47.5 106.1 106.1 0 58.7-47.5 106.2-106.1 106.2M15350.4 5872.9c-58.6 0-106.1-47.5-106.1-106.2 0-58.6 47.5-106.1 106.1-106.1 58.6 0 106.1 47.5 106.1 106.1 0 58.7-47.5 106.2-106.1 106.2M15823.3 5872.9c-58.6 0-106.1-47.5-106.1-106.2 0-58.6 47.5-106.1 106.1-106.1 58.7 0 106.2 47.5 106.2 106.1 0 58.7-47.5 106.2-106.2 106.2M14877.5 5487.7c-58.7 0-106.2-47.5-106.2-106.1 0-58.6 47.5-106.2 106.2-106.2 58.6 0 106.1 47.6 106.1 106.2 0 58.6-47.5 106.1-106.1 106.1M15350.4 5487.7c-58.6 0-106.1-47.5-106.1-106.1 0-58.6 47.5-106.2 106.1-106.2 58.6 0 106.1 47.6 106.1 106.2 0 58.6-47.5 106.1-106.1 106.1M15823.3 5487.7c-58.6 0-106.1-47.5-106.1-106.1 0-58.6 47.5-106.2 106.1-106.2 58.7 0 106.2 47.6 106.2 106.2 0 58.6-47.5 106.1-106.2 106.1M14877.5 5102.6c-58.7 0-106.2-47.6-106.2-106.2 0-58.6 47.5-106.1 106.2-106.1 58.6 0 106.1 47.5 106.1 106.1 0 58.6-47.5 106.2-106.1 106.2M15350.4 5102.6c-58.6 0-106.1-47.6-106.1-106.2 0-58.6 47.5-106.1 106.1-106.1 58.6 0 106.1 47.5 106.1 106.1 0 58.6-47.5 106.2-106.1 106.2M15823.3 5102.6c-58.6 0-106.1-47.6-106.1-106.2 0-58.6 47.5-106.1 106.1-106.1 58.7 0 106.2 47.5 106.2 106.1 0 58.6-47.5 106.2-106.2 106.2" class="colorf47458 svgShape"></path><path fill="#13375b" d="m 6289.6,1995.34 v 0 c 0,-18.52 17.85,-33.49 39.84,-33.49 h 9930.76 c 22,0 39.8,14.97 39.8,33.49 v 0 c 0,18.51 -17.8,33.55 -39.8,33.55 H 6329.44 c -21.99,0 -39.84,-15.04 -39.84,-33.55" transform="scale(1.49604)" class="color13375b svgShape"></path><path fill="#466eb6" d="m 13191.6,3025.4 c 0,0 1382.7,-47.2 1685.9,96.5 303.2,143.7 9.1,333.6 9.1,333.6 0,0 657,155.8 700.2,360.8 43.2,205 -272.1,172.9 -272.1,172.9 0,0 629.3,439.8 539.1,574.9 -168.1,251.5 -879.6,-191.6 -879.6,-191.6 0,0 236.9,235.6 69.9,323.2 -251.8,131.9 -617.5,-502.8 -617.5,-502.8 0,0 18.3,153.6 -175.4,163.1 -347.4,16.9 -1059.6,-1330.6 -1059.6,-1330.6" class="color466eb6 svgShape"></path><path fill="#355389" d="m 14239.1,4466.7 c 193.7,-9.5 187.5,-273.8 187.5,-273.8 0,0 368.3,749.9 620.1,617.9 166.9,-87.5 -14.3,-403.2 -14.3,-403.2 0,0 653.3,408 821.4,156.5 L 13307.2,3121.9 c 82.3,157.8 607.4,1360.6 931.9,1344.8" class="color355389 svgShape"></path><path fill="#466eb6" d="m 13139.9,3025.1 c 0,0 1189.7,827.8 1360.8,1191.7 171.1,363.9 -156.6,333.5 -156.6,333.5 0,0 489.4,644.5 373.2,867.1 -116.1,222.7 -383.4,-47.2 -383.4,-47.2 0,0 247.6,886.3 61.2,942.6 -347.1,104.8 -686.7,-1017.5 -686.7,-1017.5 0,0 -129.6,620.9 -350.8,574.8 -333.5,-69.6 -0.7,-987.6 -0.7,-987.6 0,0 -98.4,299 -284.8,160.3 -334.5,-248.8 67.8,-2017.7 67.8,-2017.7" class="color466eb6 svgShape"></path><path fill="#355389" d="M12746.7 5028.5c210 99.4 252.2 308.4 252.2 308.4 0 0 1.4 519.1 335 588.7 221.1 46.1 375.9-370.9 375.9-370.9 0 0 338.2 862.9 685.3 758.1L13136.3 3039c-43.9 208.7-639.8 1871.2-389.6 1989.5M7481.89 2880.2c0 0-2845.54 1492.5-3352.48 2272.7-506.92 780.1 111.86 843.8 111.86 843.8 0 0-1324.7 1322.9-1128.64 1869.8 196.05 547 893.64 12.6 893.64 12.6 0 0-846.58 1953.4-437.18 2141.2 762.56 349.6 1798.35-1731.1 1798.35-1731.1 0 0-216.61 900.8 304.85 864.8 786.39-54.4 727.06-2084.9 727.06-2084.9 0 0 99.16 777.5 570.15 518.3 845.05-465 512.39-4707.2 512.39-4707.2" class="color355389 svgShape"></path><path fill="#466eb6" d="m 7144.88,7899.3 c -367.68,210.4 -744.52,-385.5 -744.52,-385.5 0,0 58.32,1585.8 -728.07,1640.1 -521.46,36.1 -304.85,-864.7 -304.85,-864.7 0,0 -1035.79,2080.7 -1798.35,1731.1 l 3916.7,-7107.1 c 34.84,492.2 387.46,4569.2 -340.91,4986.1" class="color466eb6 svgShape"></path><path fill="#355389" d="m 7457.83,2888.8 c 0,0 -2467.13,-237.5 -3096.22,52.2 -629.11,289.7 -163.6,613.3 -163.6,613.3 0,0 -1359.53,306.4 -1453.43,728.6 -93.89,422.2 557.55,363 557.55,363 0,0 -1309.08,893.3 -1125.95,1174.2 341.12,523.1 1819.88,-375.2 1819.88,-375.2 0,0 -494.27,481 -151.68,665.5 516.66,278.2 1286.06,-1023.6 1286.06,-1023.6 0,0 -41.29,316.8 358.2,340.8 716.76,43 1969.19,-2538.8 1969.19,-2538.8" class="color355389 svgShape"></path><path fill="#466eb6" d="m 5511.1,5656.3 c -399.48,-24 -380.66,-569.5 -380.66,-569.5 0,0 -777.4,1539.4 -1294.06,1261.2 -342.6,-184.5 38.84,-832 38.84,-832 0,0 -1357.92,827.2 -1699.04,304.1 L 7465.67,2902.3 C 7292.02,3226 6180.61,5696.4 5511.1,5656.3" class="color466eb6 svgShape"></path><path fill="#f7cc7f" d="m 16241.4,11771.6 c -58.5,-205.3 -272.4,-324.3 -477.7,-265.7 -205.3,58.6 -324.2,272.5 -265.7,477.9 58.6,205.3 272.5,324.3 477.8,265.7 205.3,-58.6 324.2,-272.6 265.6,-477.9" transform="scale(1.12108)" class="colorf7cc7f svgShape"></path><path fill="#efefef" d="m 15896.4,12059.2 c -31.8,-111.4 32.8,-227.6 144.2,-259.4 111.5,-31.8 227.6,32.8 259.4,144.2 l -403.6,115.2" transform="scale(1.104)" class="colorefefef svgShape"></path><path fill="#f48c7f" d="M15992.7 15915.9l-239.1 19.4-32.7-221.3-236.4 8.7-57.3-207.6-178-22.5 11.4-90.1 238.1 30.1 54.2 196.7 246-9 32.1 217.6 216.7-17.5-55 95.5M6901.85 13025.7l-11.71-145.6-236.49-7.1-43.4-210.9-176.1-34.2 17.31-89.1 235.55 45.7 41.12 199.9 246.01 7.3 17.63 219.2-89.92 14.8" class="colorf48c7f svgShape"></path><path fill="#184655" d="M 13211.3,3002.2 H 9947.25 c -169.52,0 -306.93,137.4 -306.93,306.9 v 6375 c 0,169.5 137.41,306.9 306.93,306.9 h 3264.05 c 169.5,0 306.9,-137.4 306.9,-306.9 v -6375 c 0,-169.5 -137.4,-306.9 -306.9,-306.9" class="color184655 svgShape"></path><path fill="#3c8f7c" d="m 9947.25,3248.9 c -33.19,0 -60.19,27 -60.19,60.2 v 6375 c 0,33.2 27,60.2 60.19,60.2 h 3264.05 c 33.1,0 60.1,-27 60.1,-60.2 v -6375 c 0,-33.2 -27,-60.2 -60.1,-60.2 H 9947.25" class="color3c8f7c svgShape"></path><path fill="#355389" d="m 12240.3,8785 c 0,-326.2 -264.5,-590.7 -590.7,-590.7 -326.2,0 -590.7,264.5 -590.7,590.7 0,326.2 264.5,590.7 590.7,590.7 326.2,0 590.7,-264.5 590.7,-590.7" class="color355389 svgShape"></path><path fill="#184655" d="m 11855.6,8785 c 0,-113.8 -92.2,-206 -206,-206 -113.8,0 -206.1,92.2 -206.1,206 0,113.8 92.3,206.1 206.1,206.1 113.8,0 206,-92.3 206,-206.1" class="color184655 svgShape"></path><path fill="#355389" d="m 12487,6496.6 c 0,-462.5 -374.9,-837.4 -837.4,-837.4 -462.5,0 -837.4,374.9 -837.4,837.4 0,462.5 374.9,837.4 837.4,837.4 462.5,0 837.4,-374.9 837.4,-837.4" class="color355389 svgShape"></path><path fill="#184655" d="m 11941.7,6496.6 c 0,-161.3 -130.8,-292.1 -292.1,-292.1 -161.3,0 -292.1,130.8 -292.1,292.1 0,161.3 130.8,292.1 292.1,292.1 161.3,0 292.1,-130.8 292.1,-292.1" class="color184655 svgShape"></path><path fill="#355389" d="m 12416.6,4357.4 c 0,-462.4 -374.9,-837.4 -837.4,-837.4 -462.4,0 -837.3,375 -837.3,837.4 0,462.5 374.9,837.4 837.3,837.4 462.5,0 837.4,-374.9 837.4,-837.4" class="color355389 svgShape"></path><path fill="#184655" d="m 11871.4,4357.4 c 0,-161.3 -130.8,-292.1 -292.2,-292.1 -161.3,0 -292.1,130.8 -292.1,292.1 0,161.4 130.8,292.2 292.1,292.2 161.4,0 292.2,-130.8 292.2,-292.2" class="color184655 svgShape"></path><path fill="#96d9c9" d="m 15768.1,10100 149.3,-15.2 c 7.6,-0.8 14.4,-5.2 18,-11.8 l 72,-129.61 c 9.1,-16.62 33.8,-15.64 41.5,1.67 l 60.9,134.94 c 3.2,6.9 9.5,11.8 17,13.2 l 147.6,27.1 c 18.9,3.5 25.6,26.8 11.3,39.5 l -111.7,98.6 c -5.8,5.1 -8.6,12.5 -7.6,20 l 19.4,146.3 c 2.4,18.8 -18.1,32.2 -34.7,22.8 l -129.9,-74 c -6.7,-3.8 -14.8,-4.1 -21.7,-0.9 l -135.6,63.3 c -17.4,8.1 -36.7,-6.9 -32.7,-25.4 l 31.4,-144.3 c 1.6,-7.4 -0.6,-15.1 -5.8,-20.5 l -103.1,-107.3 c -13.4,-13.7 -4.7,-36.4 14.4,-38.4" transform="scale(1.2774)" class="color96d9c9 svgShape"></path><path fill="#f7cc7f" d="m 9070.62,10765.9 190.76,-19.5 c 9.72,-1 18.32,-6.6 23,-15 l 91.83,-165.6 c 11.78,-21.2 43.21,-19.9 53.19,2.2 l 77.79,172.3 c 3.96,8.8 12.07,15.1 21.67,16.9 l 188.51,34.7 c 24.19,4.4 32.68,34.2 14.38,50.4 l -142.7,126 c -7.26,6.4 -10.86,15.9 -9.6,25.4 l 24.68,187 c 3.16,24 -23.02,41.2 -44.32,29 l -165.97,-94.4 c -8.45,-4.9 -18.78,-5.3 -27.6,-1.2 l -173.27,80.9 c -22.23,10.4 -46.9,-8.8 -41.76,-32.5 l 40.12,-184.3 c 2.04,-9.4 -0.75,-19.2 -7.46,-26.2 l -131.76,-137 c -16.9,-17.6 -5.97,-46.6 18.51,-49.1" class="colorf7cc7f svgShape"></path><path fill="#f7cc7f" d="m 15765,8580.77 150.2,-15.33 c 7.6,-0.79 14.4,-5.22 18.1,-11.85 l 72.3,-130.35 c 9.3,-16.72 34,-15.73 41.9,1.68 l 61.2,135.71 c 3.2,6.92 9.6,11.88 17.1,13.26 l 148.5,27.34 c 19,3.5 25.7,26.95 11.3,39.68 l -112.4,99.21 c -5.7,5.04 -8.6,12.54 -7.5,20.04 l 19.3,147.24 c 2.6,18.88 -18.1,32.38 -34.8,22.84 l -130.7,-74.4 c -6.7,-3.78 -14.8,-4.11 -21.7,-0.87 l -136.5,63.67 c -17.4,8.16 -36.9,-6.94 -32.9,-25.56 l 31.6,-145.19 c 1.7,-7.4 -0.5,-15.1 -5.8,-20.6 l -103.8,-107.88 c -13.3,-13.84 -4.6,-36.68 14.6,-38.64" transform="scale(1.27002)" class="colorf7cc7f svgShape"></path><path fill="#f7a491" d="m 15321.6,5796.09 c -6.7,-2.78 88.3,-125.18 180.8,-211.72 74.6,-93.63 144.6,-204.4 168.6,-325.29 36.7,-183.67 6.2,-1091.31 38.1,-1155.85 273.7,-267.67 471.9,-939.35 527.6,-1144.22 10.9,-39.93 32.9,-75.94 63.3,-103.99 v 0 l -12.2,-231.49 -136,-125.35 c 0,0 30.3,188.7 -30.2,328.71 0,0 -689.2,1043.73 -730.2,1123.58 -78.2,227.19 -362.8,1391.33 -362.8,1391.33 l -66.1,267.51 c 0,0 358.5,186.55 359.1,186.78" transform="scale(1.25491)" class="colorf7a491 svgShape"></path><path fill="#486fb4" d="m 16300,2755.4 c 0,0 -85.4,-131.48 -92.6,-182.73 -7.3,-51.24 -52.8,-167.4 -103,-174.82 -11.4,-1.66 -206.9,-15.95 -205.5,8.45 1.1,18.63 71.9,45.32 104.7,67.99 56.8,39.24 144.9,358.65 144.9,358.65 0,0 147.8,-36.64 151.5,-77.54" transform="scale(1.26639)" class="colorf47458 svgShape"></path><path fill="#f7a491" d="m 15850.7,5803.22 c 0,0 -477.6,-1021.19 -480.7,-1200.8 -2.5,-153.9 83.5,-1017.42 59.4,-1736.47 -0.8,-25.98 -33.6,-60.53 -81.5,-82.39 -27,-12.35 -154,-74.68 -154,-74.68 l -20.9,-42.35 448,31.89 9.1,103.91 -2.8,18.43 c 0,0 178.4,1075.72 160.2,1379.91 -2.9,47.84 -26.2,333.93 -26.2,333.93 l 538.7,1040.05 -338.7,445.14 -110.6,-216.57" transform="scale(1.16639)" class="colorf7a491 svgShape"></path><path fill="#13375b" d="m 16300,4402.12 c -0.1,-0.17 -0.1,-0.17 -0.2,0.08 l 0.2,-0.08" transform="scale(1.21258)" class="color13375b svgShape"></path><path fill="#13375b" d="m 14626.6,4848.23 898.1,1297.61 c 55.5,-22.42 107.8,-41.97 167,-53.39 128.8,-24.89 257.8,-20.87 388.2,-16.6 0,-4.84 0.2,-9.11 0.7,-12.73 15,-107.03 156.9,-272.63 186.1,-597.26 33.3,-368.49 13.2,-1008.55 1.9,-1050.6 -597.1,72.61 -1472.6,255.21 -1642,432.97" transform="scale(1.21739)" class="color13375b svgShape"></path><path fill="#f7a491" d="m 16296.4,8123.27 c -3.8,-39.06 -24.4,-68.97 -46.3,-66.77 -21.9,2.29 -36.6,35.76 -32.9,74.82 3.7,39.06 24.3,68.88 46.2,66.68 21.9,-2.2 36.6,-35.67 33,-74.73" transform="scale(1.18025)" class="colorf7a491 svgShape"></path><path fill="#486fb4" d="m 16287.9,2706.08 h -612.2 c -21.8,1.97 -27.5,29.48 -15.2,41.8 19.3,19.21 91.3,38.68 168.5,74.23 135.7,-14.11 433,66.36 454.4,97.44 12.3,-62.16 16.6,-210.79 4.5,-213.47" transform="scale(1.11959)" class="colorf47458 svgShape"></path><path fill="#f7a491" d="m 15065.4,7471.36 c 2.8,7.55 9.7,1.46 18.1,-11.14 -10.9,45.87 -9.4,103.48 -0.8,108.62 10.7,6.35 16.8,-73.99 40.5,-117.45 23.7,-43.47 45.3,-97.14 48.5,-94.74 5.3,3.78 -27.8,62.25 -51.2,106.92 -23.3,44.58 -5.4,249.83 16.2,102.7 21.8,-147.12 164.1,-259.52 168.2,-214.42 4.2,45.18 -19.7,113.43 9.6,103.48 29.3,-10.03 37.9,-111.02 63.6,-184.07 3,-8.4 3.3,-34.21 3.1,-64.56 -0.1,-15.77 9.8,-29.92 24.6,-35.32 l 374,-135.98 244,425.16 276.2,-58.81 c 0,0 -222.1,-577.85 -411.4,-664.96 -86.4,-39.78 -489.8,243.14 -648.5,376.98 -157,132.45 -186.9,325.36 -174.7,357.59" transform="scale(1.16639)" class="colorf7a491 svgShape"></path><path fill="#f7cc7f" d="m 16179.8,7744.37 c -97.7,-46.56 -346.9,-624.98 -346.9,-624.98 l 320.5,-196.58 101.1,294.19 c 0,0 45.5,584.77 -74.7,527.37" transform="scale(1.16388)" class="colorf7cc7f svgShape"></path><path fill="#33538b" d="m 14723.5,7433.17 c -43,106.97 -85.6,214.73 -37.1,346.04 39.4,106.28 125.1,176.55 232.7,204.69 305,79.75 300.3,-126.07 741.4,-82.97 456.3,44.58 639.5,-451.43 597.3,-615.63 -201.9,-785.36 -1108.9,-402.71 -1231.7,-272.41 -91.3,96.87 -274.8,351.48 -302.6,420.28" transform="scale(1.28629)" class="colorb75742 svgShape"></path><path fill="#f7cc7f" d="m 15688.3,7219.39 c 0,0 50.2,2.39 185.8,-59.54 135.4,-61.93 425.9,-464.69 425.9,-464.69 l -236.6,-184.11 -405.3,265.06 c 0,0 -51.3,443.28 30.2,443.28" transform="scale(1.25633)" class="colorf7cc7f svgShape"></path><path fill="#fae0b2" d="m 15443,6076.55 c 143.9,-76.47 697.6,-64.07 697.6,-64.07 13.7,143.92 87,529.24 119.2,838.75 40.2,215.45 -26.3,277.22 -70.1,598.89 -0.3,2.21 -223.3,17.74 -223.3,17.74 l -232.1,-5.75 c 0,0 -201.8,-16.18 -266.1,-58.32 -4.4,-2.88 -29.9,-366.43 -10,-624.03 13.7,-175.62 33.5,-317.31 32.3,-433.46 -1.9,-168.71 -47.5,-269.75 -47.5,-269.75" transform="scale(1.21742)" class="colorfae0b2 svgShape"></path><path fill="#fae0b2" d="m 15409.8,6962.31 c 4.5,-137.45 181.8,-269.81 433.9,-269.81 252,0 456.3,111.48 456.3,249.01 0,137.62 -167.5,331.13 -419.4,331.13 -252.1,0 -476.7,-135.97 -470.8,-310.33" transform="scale(1.21644)" class="colorfae0b2 svgShape"></path><path fill="#f7a491" d="m 16232.3,7966.24 c 0,0 4.9,-35.61 12.6,-84.63 14,-89.74 21.2,-237.05 39.2,-281.8 15.9,-39.38 -121.7,-412.01 -166.9,-308.19 -79.4,182.08 -77,236.89 -81.1,285.32 -4.2,48.01 -17.1,212.33 -25.7,321.85 -4.6,59.24 -8,102.39 -8,102.39 l 229.9,-34.94" transform="scale(1.19341)" class="colorf7a491 svgShape"></path><path fill="#486fb4" d="m 16064.7,7927.74 c -4.3,58.18 -7.5,100.81 -7.5,100.81 l 230.6,-35.06 c 0,0 5.8,-33.64 12.2,-81.06 -93.5,-54.23 -177.6,-37.16 -235.3,15.31" transform="scale(1.18934)" class="colorf47458 svgShape"></path><path fill="#f7a491" d="m 16060.6,8434.12 c 0,0 90.1,-20.29 145.6,-105.13 55.7,-84.8 93.8,-334.63 -89.3,-451.22 -183.1,-116.59 -325.6,48.38 -327.9,209.19 -2.3,160.89 32.2,375.53 271.6,347.16" transform="scale(1.20081)" class="colorf7a491 svgShape"></path><path fill="#f7a491" d="m 16199.7,8371.2 c 16,-39.92 48,-64.77 71.2,-55.34 23.3,9.33 29.1,49.26 13,89.18 -16.1,39.92 -48,64.77 -71.2,55.34 -23.3,-9.33 -29.1,-49.26 -13,-89.18" transform="scale(1.16726)" class="colorf7a491 svgShape"></path><path fill="#33538b" d="m 15984.5,8413.55 c 0,0 114.4,-256.7 215,-279.61 100.5,-22.92 99.1,-152.1 99.1,-152.1 0,0 -2.3,298.3 -96.5,366.7 -94.2,68.41 -217.6,65.01 -217.6,65.01" transform="scale(1.2045)" class="colorb75742 svgShape"></path><path fill="#f7a491" d="m 16184.5,8093.13 c -13.2,-41.74 -1.1,-82.91 27.1,-91.88 28.2,-8.9 61.9,17.62 75.1,59.36 13.3,41.74 1.2,82.9 -27.1,91.88 -28.2,8.9 -61.8,-17.62 -75.1,-59.36" transform="scale(1.20264)" class="colorf7a491 svgShape"></path><path fill="#ffd09f" d="m 16123.3,8321.39 176.7,316.93 -25,13.91 -176.7,-316.94 25,-13.9" transform="scale(1.06456)" class="colorffd09f svgShape"></path><path fill="#ffb769" d="m 16123.3,8321.39 176.7,316.93 -14.5,8.08 -176.7,-316.94 14.5,-8.07" transform="scale(1.06456)" class="colorffb769 svgShape"></path><path fill="#ffd09f" d="m 16128.4,8201.76 171.6,307.73 -24.8,13.8 -171.5,-307.73 24.7,-13.8" transform="scale(1.07236)" class="colorffd09f svgShape"></path><path fill="#ffb769" d="m 16128.4,8201.76 171.6,307.73 -18.5,10.26 -171.5,-307.74 18.4,-10.25" transform="scale(1.07236)" class="colorffb769 svgShape"></path><path fill="#ffd09f" d="m 16129.8,8071.43 170.2,305.41 -24.5,13.7 -170.3,-305.42 24.6,-13.69" transform="scale(1.0805)" class="colorffd09f svgShape"></path><path fill="#ffb769" d="m 16129.8,8071.43 170.2,305.41 -14.9,8.33 -170.3,-305.42 15,-8.32" transform="scale(1.0805)" class="colorffb769 svgShape"></path><path fill="#486fb4" d="m 15359.5,5243.9 c -93.7,84.9 -152,261.33 -186.9,332.52 0,0 -45.7,93 -182.9,95.19 -137.2,2.1 -289.7,83.81 -359.5,240.84 -69.7,157.1 99.8,393.58 99.8,393.58 l 7.4,13.17 c 0,0 111.9,268.57 282.2,291.93 170.3,23.29 320,-63.56 394,-179.07 74,-115.51 177,-105.46 177,-105.46 78.9,7.71 259.7,50.86 381.2,15.88 113.4,-32.63 203.5,-116.29 258.5,-221.91 59.7,-114.58 69.7,-271.45 -16.2,-468.44 -4.7,-10.51 -50,-103.2 -65.1,-128.29 -13.4,-26.09 -68.4,-113.41 -75,-122.91 -122.3,-176.66 -261,-250.65 -389.8,-260.16 -118.8,-8.8 -237.3,23.84 -324.7,103.13" transform="scale(1.28383)" class="colorf47458 svgShape"></path><path fill="#33538b" d="m 15888.2,6167.79 c 117.9,-65.7 270.7,-16.37 341.2,110.26 70.6,126.63 32.3,282.54 -85.6,348.24 -117.9,65.78 -270.8,16.36 -341.4,-110.27 -70.5,-126.55 -32.1,-282.53 85.8,-348.23" transform="scale(1.21614)" class="colorb75742 svgShape"></path><path fill="#13375b" d="m 16030.8,6286.5 c 77.1,-42.94 177,-10.68 223,72.05 46.2,82.74 21.1,184.67 -56,227.6 -77,43.02 -176.9,10.76 -223,-72.06 -46.2,-82.73 -21,-184.66 56,-227.59" transform="scale(1.20872)" class="color13375b svgShape"></path><path fill="#ff7700" d="m 15767.7,8292.96 v 0 c 12.6,24.58 41.4,35.17 64.4,23.66 l 289.3,-145.63 c 23,-11.51 31.5,-40.88 18.9,-65.45 v 0 c -12.5,-24.58 -41.4,-35.17 -64.3,-23.57 l -289.4,145.54 c -22.9,11.51 -31.4,40.87 -18.9,65.45 z m 366.8,-98.5 -276,169.57 c -21.9,13.44 -28.1,43.54 -13.7,67.11 v 0 c 14.3,23.66 43.7,31.85 65.6,18.41 l 276,-169.57 c 21.9,-13.44 28.1,-43.54 13.7,-67.1 v 0 c -14.2,-23.67 -43.7,-31.86 -65.6,-18.42 z M 15769,8570.7 c -106,-55.51 -169.5,-168.19 -161.8,-287.59 l 0.2,-2.48 498.7,-248.09 c 21.2,6.9 93.3,-10.13 93.3,-10.13 l 100.6,180.52 c 0,0 -52.4,52.38 -57.7,74.01 L 15769,8570.7 v 0" transform="scale(1.08629)" class="colorf70 svgShape"></path><path fill="#184655" d="m 16174.1,6595.37 c -24.2,-43.47 -29.1,-92.14 -17.2,-134.94 l -1416.6,839.4 91.6,164.26 1468.1,-778.5 c -50.4,-8.13 -97.9,-39.96 -125.9,-90.22" transform="scale(1.19382)" class="color184655 svgShape"></path><path fill="#33538b" d="m 15973.6,5571.45 326.4,585.65 -87.2,48.56 -326.4,-585.64 87.2,-48.57" transform="scale(1.254)" class="colorb75742 svgShape"></path><path fill="#184655" d="m 16295.3,8343.95 0.5,1.01 c 4.2,7.48 1.5,16.9 -6,21.06 l -58.2,32.5 c -7.5,4.15 -16.9,1.48 -21.1,-6 l -0.5,-1.02 c -4.2,-7.48 -1.5,-16.89 6,-21.05 l 58.2,-32.5 c 7.5,-4.16 16.9,-1.48 21.1,6" transform="scale(1.08301)" class="color184655 svgShape"></path><path fill="#184655" d="m 16295.3,8476.7 0.5,0.93 c 4.2,7.54 1.5,17.13 -6,21.31 l -58.7,32.66 c -7.6,4.28 -17.1,1.49 -21.3,-6.05 l -0.5,-0.93 c -4.2,-7.54 -1.5,-17.03 6,-21.31 l 58.7,-32.65 c 7.5,-4.19 17.1,-1.49 21.3,6.04" transform="scale(1.07483)" class="color184655 svgShape"></path><path fill="#184655" d="m 16295.2,8608.72 0.6,0.93 c 4.2,7.59 1.5,17.24 -6.1,21.46 l -59.1,32.89 c -7.6,4.31 -17.2,1.59 -21.4,-6 l -0.6,-1.03 c -4.2,-7.59 -1.5,-17.14 6.1,-21.36 l 59.2,-32.99 c 7.6,-4.21 17.1,-1.49 21.3,6.1" transform="scale(1.06722)" class="color184655 svgShape"></path><path fill="#184655" d="m 16295.1,8376.18 0.5,1.05 c 4.4,7.67 1.6,17.34 -6.1,21.6 l -59.7,33.36 c -7.7,4.26 -17.4,1.51 -21.7,-6.16 l -0.6,-1.05 c -4.2,-7.67 -1.5,-17.34 6.2,-21.6 l 59.8,-33.36 c 7.6,-4.26 17.3,-1.51 21.6,6.16" transform="scale(1.05534)" class="color184655 svgShape"></path><path fill="#184655" d="m 16295.2,8250.68 0.6,1.03 c 4.2,7.62 1.5,17.22 -6.1,21.45 l -59.4,33.1 c -7.6,4.24 -17.2,1.51 -21.4,-6.11 l -0.6,-1.03 c -4.2,-7.62 -1.5,-17.21 6.1,-21.45 l 59.4,-33.1 c 7.6,-4.23 17.2,-1.51 21.4,6.11" transform="scale(1.06326)" class="color184655 svgShape"></path><path fill="#184655" d="m 16295.2,8121.67 0.6,0.93 c 4.2,7.56 1.5,17.18 -6.1,21.38 l -58.9,32.76 c -7.5,4.2 -17.1,1.5 -21.4,-6.06 l -0.5,-0.94 c -4.2,-7.56 -1.5,-17.17 6.1,-21.37 l 58.9,-32.77 c 7.5,-4.2 17.1,-1.49 21.3,6.07" transform="scale(1.07123)" class="color184655 svgShape"></path><path fill="#96d9c9" d="m 16179.1,8012.36 100.5,180.3 20.4,-10.85 -101,-181.22 -19.9,11.77" transform="scale(1.08766)" class="color96d9c9 svgShape"></path><path fill="#96d9c9" d="m 16188.2,7867.79 103.3,185.34 8.5,-4.47 -103.5,-185.8 -8.3,4.93" transform="scale(1.09633)" class="color96d9c9 svgShape"></path><path fill="#96d9c9" d="m 16185.7,7732.18 105.9,189.95 8.4,-4.53 -106.1,-190.31 -8.2,4.89" transform="scale(1.10501)" class="color96d9c9 svgShape"></path><path fill="#96d9c9" d="m 16183.6,7618.35 108,193.73 8.4,-4.41 -108.1,-194.17 -8.3,4.85" transform="scale(1.11239)" class="color96d9c9 svgShape"></path><path fill="#96d9c9" d="m 16181.6,7506.03 110,197.54 8.4,-4.46 -110.3,-197.9 -8.1,4.82" transform="scale(1.11978)" class="color96d9c9 svgShape"></path><path fill="#96d9c9" d="m 16179.7,7403.85 112,200.88 8.3,-4.35 -112.2,-201.32 -8.1,4.79" transform="scale(1.12659)" class="color96d9c9 svgShape"></path><path fill="#96d9c9" d="m 16177.8,7302.77 113.9,204.26 8.3,-4.33 -114.1,-204.69 -8.1,4.76" transform="scale(1.1334)" class="color96d9c9 svgShape"></path><path fill="#96d9c9" d="m 16176.4,7218.3 115.4,207.17 8.2,-4.38 -115.6,-207.52 -8,4.73" transform="scale(1.13916)" class="color96d9c9 svgShape"></path><path fill="#96d9c9" d="m 16174.8,7134.65 117.1,209.97 8.1,-4.37 -117.2,-210.32 -8,4.72" transform="scale(1.14492)" class="color96d9c9 svgShape"></path><path fill="#96d9c9" d="m 16173.4,7054.55 118.5,212.61 8.1,-4.26 -118.7,-213.04 -7.9,4.69" transform="scale(1.15049)" class="color96d9c9 svgShape"></path><path fill="#96d9c9" d="m 16172,6980.36 120,215.11 8,-4.33 -120.1,-215.45 -7.9,4.67" transform="scale(1.1557)" class="color96d9c9 svgShape"></path><path fill="#96d9c9" d="m 16170.8,6910.84 121.1,217.38 8.1,-4.22 -121.4,-217.81 -7.8,4.65" transform="scale(1.16063)" class="color96d9c9 svgShape"></path><path fill="#96d9c9" d="m 16168.5,6786.83 123.5,221.54 8,-4.19 -123.7,-221.97 -7.8,4.62" transform="scale(1.16952)" class="color96d9c9 svgShape"></path><path fill="#96d9c9" d="m 16167.4,6726.84 124.6,223.53 8,-4.17 -124.9,-223.96 -7.7,4.6" transform="scale(1.17387)" class="color96d9c9 svgShape"></path><path fill="#96d9c9" d="m 16166.6,6678.37 125.5,225.24 7.9,-4.25 -125.7,-225.58 -7.7,4.59" transform="scale(1.1774)" class="color96d9c9 svgShape"></path><path fill="#96d9c9" d="m 16165.6,6627.52 126.4,226.9 8,-4.23 -126.7,-227.24 -7.7,4.57" transform="scale(1.18113)" class="color96d9c9 svgShape"></path><path fill="#ffffff" d="m 16292.4,8564.96 7.6,13.75 -39.9,22.22 -7.6,-13.75 39.9,-22.22" transform="scale(1.06214)" class="colorfff svgShape"></path><path fill="#ffffff" d="m 16294.7,8473.07 5.3,9.46 -35.8,19.86 -5.2,-9.37 35.7,-19.95" transform="scale(1.05722)" class="colorfff svgShape"></path><path fill="#ffffff" d="m 16294.2,8435.29 5.8,10.37 -42.5,23.74 -5.8,-10.38 42.5,-23.73" transform="scale(1.06998)" class="colorfff svgShape"></path><path fill="#ffffff" d="m 16292,8340.83 8,14.27 -38.3,21.4 -8,-14.27 38.3,-21.4" transform="scale(1.06534)" class="colorfff svgShape"></path><path fill="#ffffff" d="m 16293.5,8310.29 6.5,11.6 -36.4,20.31 -6.5,-11.69 36.4,-20.22" transform="scale(1.07802)" class="colorfff svgShape"></path><path fill="#ffffff" d="m 16296.1,8205.66 3.9,6.9 -33.7,18.83 -4,-6.9 33.8,-18.83" transform="scale(1.07259)" class="colorfff svgShape"></path><path fill="#96d9c9" d="m 16169.7,6851.28 122.2,219.42 8.1,-4.29 -122.5,-219.77 -7.8,4.64" transform="scale(1.16488)" class="color96d9c9 svgShape"></path><path fill="#f7a491" d="m 15366.5,5846.89 c 1.4,-3.3 -46.6,-13.67 -90,-26.15 -43.5,-12.49 -115,-12.64 -111.6,-23.09 2.6,-8.17 46.5,-12.95 87,-9.81 -10.1,-4.32 -14.8,-8.48 -9.4,-11.94 22,-14.14 148.6,-6.2 264.8,43.27 116.2,49.47 792.7,420.83 724.1,525.35 -25.2,38.48 -133.5,149.36 -195.4,225.69 l -177.2,-137.97 91.2,-99.58 c -139.8,-149.67 -353.7,-311.99 -364.7,-319.84 -29.6,-21.2 -86.6,-2.91 -99.5,-2.59 -70.4,1.88 -161.1,2.67 -176.2,-20.89 -15.1,-23.64 50.3,-15.63 89.4,-27.64 39,-12.02 -90.6,-114.58 -225.3,-106.1 -134.7,8.57 17.6,-51.59 62,-39.65 44.5,11.94 128.6,36.2 130.8,30.94" transform="scale(1.27343)" class="colorf7a491 svgShape"></path><path fill="#f7a491" d="m 16188.4,7217.59 -383.7,139.5 c -15.2,5.54 -25.3,20.05 -25.2,36.23 0.2,31.14 -0.1,57.61 -3.2,66.23 -26.4,75.03 -35.2,178.55 -65.2,188.84 -30.1,10.21 -5.6,-59.81 -9.9,-106.16 -4.2,-46.26 -150.1,69.05 -172.5,219.98 -22.2,150.93 -40.5,-59.64 -16.6,-105.37 23.9,-45.83 57.9,-105.81 52.5,-109.68 -3.3,-2.46 -25.5,52.59 -49.8,97.19 -24.3,44.59 -30.6,127.01 -41.5,120.49 -8.9,-5.27 -10.4,-64.38 0.8,-111.43 -8.6,12.92 -15.7,19.17 -18.6,11.43 -12.4,-33.07 18.2,-230.97 179.2,-366.86 162.8,-137.3 576.7,-427.55 665.3,-386.74 l -111.6,306.35" transform="scale(1.13694)" class="colorf7a491 svgShape"></path><path fill="#f7a491" d="m 12527.6,12522.3 c 0,0 9.3,26 1.8,82.4 -9.2,69.8 -35.7,173.7 -39.6,182.7 -7.1,16.3 210.6,114 210.6,114 0,0 360.7,61.6 409.9,108.5 49.2,46.9 92.6,69 72.4,24 -36.5,-81.3 -129.6,-205.3 -151.4,-223.3 -21.9,-18 -295.3,-122.3 -300.4,-122.9 -5,-0.6 17.7,-177.6 17.7,-177.6 l -221,12.2" class="colorf7a491 svgShape"></path><path fill="#355389" d="m 12754.1,12625.8 c 0,0 -239.7,12.1 -241.2,-11.9 -33.2,-531.1 -28.9,-704.8 -38.8,-711.5 -33.5,-22.6 -598.2,365.5 -686.1,384.9 -42.1,9.2 -85.8,1.6 -127.8,-4.6 -100.2,-14.9 -66.6,-8.5 -119.3,-17.4 l 0.1,-0.1 c -2.9,-0.5 -4.5,-0.8 -4.5,-0.8 l 11.8,-94.5 c 125.4,-88.5 567.8,-1601.1 589.5,-1597.5 24.3,4 552,-64.1 537.9,-22 -2.3,6.8 -381.9,248.9 -528.5,645.8 -49.2,133.2 -83,279 -116.2,406.1 120.6,-43.5 591.3,-209.6 658.4,-172.3 208.5,115.9 64.7,1195.8 64.7,1195.8" class="color355389 svgShape"></path><path fill="#f7a491" d="m 13961.8,9990.1 c 0,0 521.1,-316.9 544.9,-381.2 34.2,-92.7 455.9,84.5 348.3,91.4 -24.7,1.6 -104.6,12.1 -111.3,14.7 -36.3,14.2 -521.2,475.1 -521.2,475.1 l -260.7,-200" class="colorf7a491 svgShape"></path><path fill="#f7cc7f" d="m 15059.8,9724.6 -307.4,-11.3 c 0,0 -78.4,-82.4 -245.3,-105.6 0,0 -17.6,-79.5 5.7,-167.3 4,-15.2 12.1,-61.4 27.5,-58.5 55.8,10.5 201.2,65.5 367.9,119.9 0,0 223.7,75.9 346.8,170.9 123.1,95 -195.2,51.9 -195.2,51.9" class="colorf7cc7f svgShape"></path><path fill="#33538b" d="m 11714.3,10673.4 c 0,0 356.1,-17.2 731.6,118.9 434.4,157.6 917,312.8 1071.7,245.9 124.6,-53.9 982.7,-1067.1 982.7,-1067.1 l -256.6,-238.4 -907.7,802.1 c 0,0 -977.4,-498.5 -1212,-483.9 -534.1,33.1 -591.1,449.8 -409.7,622.5" class="colorb75742 svgShape"></path><path fill="#33538b" d="m 12069.7,10940.6 398.6,-373.7 -624.6,-274.4 -129.4,380.9 355.4,267.2" class="colorb75742 svgShape"></path><path fill="#f7a491" d="m 13004.7,9128.5 c 0,0 47.2,-579.2 45.6,-678.4 -1.5,-98.8 291,-361.1 246,-263.1 -10.4,22.5 -39.1,97.8 -40,105 -4.7,38.6 13,707.8 13,707.8 l -264.6,128.7" class="colorf7a491 svgShape"></path><path fill="#f7cc7f" d="m 13415,8018.4 -156,265 c 0,0 -109.8,30 -209.5,165.7 0,0 -78.4,-22.2 -144.5,-84.5 -11.5,-10.7 -89.3,-83.2 -81.7,-96.8 28.2,-50.4 157.7,-150.1 299.4,-258.9 0,0 197.2,-123.8 339.3,-187 142.1,-63.2 -47,196.5 -47,196.5" class="colorf7cc7f svgShape"></path><path fill="#486fb4" d="m 13435.7,10332.5 c -141.4,148.3 -1145.1,186 -1145.1,186 l -337.4,495.5 -563.1,-446.7 c 0,0 118.1,-476.3 179,-600.1 81.2,-164.9 490.5,-125.2 739.6,-93 229.2,29.5 653.8,32.5 653.8,32.5 l 6.7,-1267.4 c 0,0 286.1,-30.3 363.2,-10.8 8.7,2.2 279.2,1519.5 103.3,1704" class="colorf47458 svgShape"></path><path fill="#96d9c9" d="m 11540,12263.9 -340.5,-59.4 c 0,0 -7.6,-3.7 -9.9,-4.4 -27.3,-8.5 116.6,-1004.4 185.8,-1374.6 69.2,-370.1 138.3,-520.8 138.3,-520.8 0,0 455.1,137.7 591.2,210 56.4,30 178.5,226.2 178.5,226.2 0,0 -169.8,179.4 -281.5,490.4 -86.1,239.8 -208.1,668.6 -259.1,755.1 -117,198.6 -202.8,277.5 -202.8,277.5" class="color96d9c9 svgShape"></path><path fill="#f7a491" d="m 11173.4,12507.9 26.1,-303.8 c 0,0 267.3,-356 374.9,-289.2 90.3,56.1 -29.1,336.8 -29.1,336.8 0,0 -24.5,64.8 -56.5,138.6 -22.4,51.7 -42.6,108.1 -46.7,150.7 -9.9,103.8 -268.7,-33.1 -268.7,-33.1" class="colorf7a491 svgShape"></path><path fill="#184655" d="m 11356.5,13229.7 c 0,0 133.3,-157.1 158.8,-299.5 25.5,-142.5 6.7,-244 6.7,-244 l -414.3,390.7 248.8,152.8" class="color184655 svgShape"></path><path fill="#f48c7f" d="m 11549.4,12964 c 11,-49.6 -3.4,-95.1 -32.2,-101.5 -28.8,-6.5 -61.2,28.5 -72.3,78.2 -11,49.6 3.4,95 32.2,101.5 28.8,6.4 61.2,-28.6 72.3,-78.2" class="colorf48c7f svgShape"></path><path fill="#f7a491" d="m 10998.5,12993.5 c -8.5,0.8 41.9,-416.7 174.5,-500.6 132.7,-83.9 344.4,-67.5 394.2,38.8 55,117.5 -61.9,549.8 -253,621.9 -191.1,72.1 -315.7,-160.1 -315.7,-160.1" class="colorf7a491 svgShape"></path><path fill="#184655" d="m 10937.1,13248.8 c -82.8,-92 -120.5,-156.5 -165.9,-307.9 -55.9,-186.2 118.4,-351.6 254.9,-409.4 136.6,-57.7 158.1,-145.9 158.1,-145.9 l -1.6,56.3 c 0.4,43.9 -15.6,67 -31,91.7 -13.6,22 -58.1,97.6 -74.2,117 -42.6,51.2 -51.1,62.4 -39.6,117.2 8.9,42.3 -17.6,129.9 -4.4,199.3 l 167.8,57.6 c 0,0 104.6,38.7 151.5,107.9 134.9,198.7 -197.8,363 -415.6,116.2" class="color184655 svgShape"></path><path fill="#f7a491" d="m 11084.2,12727 c 26.6,-43.3 27.8,-91 2.6,-106.4 -25.1,-15.5 -67.1,7 -93.8,50.3 -26.6,43.3 -27.8,91 -2.6,106.5 25.1,15.5 67.1,-7.1 93.8,-50.4" class="colorf7a491 svgShape"></path><path fill="#f8a492" d="m 9774.53,13739.7 c 29.1,-78.1 79.46,-200.9 79.46,-200.9 1.35,-35.3 8.29,-181.9 17.15,-361.4 l 249.36,135.8 c 0,0 -37.6,289.9 -28,309 8.1,16.2 26.9,-0.5 93.6,123.8 19.2,35.9 16.5,95.7 16.5,95.7 0,0 -3.9,73.4 -21,78.3 -17.2,4.8 -34.7,-8.3 -39.1,-21.6 -4.5,-13.3 0.5,-42.5 -3.9,-55.7 -4.4,-13.3 -40.5,-33 -56.5,-34.1 -16.1,-1.1 -23.6,215.8 -23.6,215.8 0,0 1.6,62 3.8,82.5 1.8,17.5 11.4,69.1 11.4,69.1 0,0 9.6,74.5 -13.6,77.4 -13.6,1.6 -40.3,-61.1 -56.1,-126.2 -16.89,-70.1 -22.54,-143 -29.78,-142.9 -16.98,0.3 -22.11,119.1 -22.11,119.1 0,0 10.26,56 6.82,81.4 12.03,33.1 15.6,92.2 -12.67,93.7 -5.22,0.3 -33,-77.6 -33,-77.6 0,0 -8.2,-53.5 -13.69,-78.7 -9.69,-44.4 -3.93,-112 -8.1,-142.7 -3.47,-25.4 -10.45,-16 -12.97,-17.3 -1.95,-1.1 -2.42,33.5 -3.9,80.8 -0.74,23.9 -6.69,50.8 -3.28,78.4 3.16,25.7 2.44,61.7 1.47,83.4 -2.74,61.5 -40.36,50.7 -47.01,-6.6 -2.54,-21.8 -5.11,-45.6 -7.62,-69.7 -9.76,-93.8 1.26,-181.7 -8.5,-183.6 -12.67,-2.5 -23.26,158.7 -23.26,158.7 0,0 -30.15,86.4 -39.87,1.7 -11.28,-98.1 0.32,-175.7 1.03,-179.1 4.84,-23.1 -2.13,-108.5 26.97,-186.5" class="colorf8a492 svgShape"></path><path fill="#355389" d="m 11199.1,12203.9 c 0,0 -341.3,-24.3 -433.7,5 -56,17.7 -534.4,317.8 -534.4,317.8 l -106.9,942.6 -309.87,-13 c 0,0 -35.67,-1060.3 33.02,-1167.7 70.92,-110.9 767.65,-519.7 920.35,-714.8 88.1,-112.4 353.8,-1633.9 378.8,-1646 175.6,-66.5 779.9,-199.6 761.7,-148.8 -503.7,1403.5 -709,2424.9 -709,2424.9" class="color355389 svgShape"></path><path fill="#f7a491" d="m 12642.4,12785 c 0,0 89.7,51.7 114,63.1 24.3,11.5 103.5,36.3 103.5,36.3 0,0 110.4,144 142.1,151.2 31.7,7.2 -56.7,-149.7 -56.7,-149.7 l -38.9,-47.4 c 0,0 63.7,69.2 76.2,79.3 12.5,10 100.6,176.2 128.8,169.3 28.2,-6.9 -31.6,-123.6 -60.2,-185.2 -28.6,-61.5 -186.4,-116.2 -186.4,-116.2 l -222.4,-0.7" class="colorf7a491 svgShape"></path><path fill="#86b1f2" d="m 12943.8,13078.6 c -2.3,2.6 -235.8,257.8 -682.2,414.9 -637.1,224.3 -1729.3,-21.5 -2053.5,681.7 -57.8,125.4 -60.5,223.6 -60.6,227.7 -0.3,15 22.4,15.5 22.7,0.5 v 0 c 0,-1 2.8,-98.4 59,-219.7 318.3,-687.6 1399.3,-443.3 2040,-668.8 320.5,-112.8 583.9,-301.7 691.5,-421.1 10,-11.2 -6.9,-26.4 -16.9,-15.2" class="color86b1f2 svgShape"></path><path fill="#86b1f2" d="m 12934.9,13199.1 c -8.8,9.6 -220.9,237.5 -618.7,378.2 -433.4,154 -1100,116.3 -1500.6,295.6 -243.3,108.9 -362.3,264.9 -419.3,376.5 -61.9,121.4 -65.9,215.8 -66.1,219.8 -0.5,15 22.2,15.8 22.7,0.8 0.1,-1.4 4.3,-94.6 64.2,-211.4 55.4,-108 171,-259 407.8,-365 396.5,-177.4 1061.8,-139.6 1498.9,-294.9 403.1,-142.6 618.9,-374.5 627.9,-384.3 4.2,-4.6 3.9,-11.8 -0.7,-16 -4.6,-4.2 -11.8,-3.9 -16.1,0.7" class="color86b1f2 svgShape"></path><path fill="#86b1f2" d="m 12926,13319.7 c -94.5,103 -290,246.8 -555.3,341.4 -418.7,150.2 -987.8,146.2 -1345.5,296.2 -254.8,106.9 -380.4,257.9 -440.9,365.7 -66,117.5 -71.2,208.7 -71.4,212.5 -0.7,14.9 22,16.1 22.7,1.1 v 0 c 0.1,-0.9 5.3,-90.6 69.1,-203.6 58.9,-104.4 181.1,-250.7 429.3,-354.7 180.6,-75.8 414.6,-111.5 662.3,-149.3 234,-35.7 475.9,-72.6 682,-146.5 269.2,-96 468.1,-242.5 564.4,-347.5 10.2,-11.1 -6.5,-26.4 -16.7,-15.3" class="color86b1f2 svgShape"></path><path fill="#86b1f2" d="m 12917.1,13440.2 c -404.8,441.3 -1224.7,423.7 -1682.3,601.6 -266.6,103.6 -398.9,249.7 -462.9,354.1 -69.9,113.8 -76,202.2 -76.2,205.9 -1,15 21.7,16.3 22.6,1.4 0.1,-1.6 6.6,-88 73.7,-196.8 62.3,-100.9 191.1,-242.5 451,-343.5 456.1,-177.3 1279.5,-159 1690.8,-607.3 4.2,-4.7 3.9,-11.8 -0.7,-16.1 -4.6,-4.2 -11.8,-3.9 -16,0.7" class="color86b1f2 svgShape"></path><path fill="#466eb6" d="M11157.1 14335.3v0c-37.5 39.2-85 153.2-113.4 221.4-38.2 91.6-33.6 72.8-48.1 80.2-30.5 6-4.8-16-247.9-513-100.7 131.7-389.4 99.4-388.5-53.7.4-79.1 83.9-149.8 196.5-149.2 78.2.4 148.5 36.3 179.1 91.3l-.2.1c8 14.5 113.7 230.4 200.8 405.3 30.3-115.7 166.3-199.9 251.2-143.9l25.7 16.9-26 16.4c-9.1 5.7-27.8 26.7-29.2 28.2M12727.1 13860.1v0c-46.2 13.2-133.8 79.6-186.2 119.3-55.4 41.9-61.2 46.3-74.9 40.5-28.9-9.7 1.1-23.1 36.7-510.6-138.3 52.8-343.9-96.6-273.9-215.1 74-125.4 322.6-30.2 319.4 125.2h-.1c-.4 14.8-15.8 262.2-27 432.5 76.8-72.3 217.2-110.6 257.7-29l13.6 27.5c-35.5 2.7-20.3-3.4-65.3 9.7M11973.3 13856.7c-.6 20.6-15.6 245.3-33.8 521.2-289.9-30.8-279.9-33.6-547 8.9 9-141.8 18.6-284.2 26.8-398.7-140.4 53.5-314.7-110.9-245.6-227.9 74.6-126.3 308.7 6.2 305.6 160.8 0 0-15.7 123.3-29.1 320l451.5-4.1c4.1-60.9 9.1-180.4 17.7-297.1-139.7 53.2-334.7-90.8-265.3-208.3 38.2-64.7 137.5-77 221.4-27.4 60.7 35.8 99.2 95.7 98 152.6h-.2" class="color466eb6 svgShape"></path><path fill="#50bfa5" d="m 16134.4,13729.5 v 0 c -41.4,-13.1 -140.8,-6.8 -200.1,-3.1 -62.8,4 -69.3,4.4 -76.7,-6.8 -17.1,-21.8 -15.4,-21.4 255.2,-371.5 -130.7,-29.4 -183.4,-240.4 -71.4,-294.8 118.5,-57.6 258.6,138.5 178.5,254.2 l -0.2,-0.1 c -7.6,11 -125.2,163.3 -218.9,286.2 94.2,-16.2 201.5,51.9 191.3,133.7 l -3.5,27.6 c -28.1,-15.7 -13.6,-12.8 -54.2,-25.4" transform="scale(1.10458)" class="color50bfa5 svgShape"></path><path fill="#96d9c9" d="m 11699.5,15709.2 c 2.1,20.1 17.3,239.9 36.2,509.8 -285.3,8.6 -276,4.5 -529.3,81 -10.1,-138.6 -19.6,-278 -26.7,-390.1 -129.1,70.5 -319.8,-66 -268.4,-188.5 55.6,-132.4 309,-71.2 326.3,79.1 l -0.1,0.1 c 1.5,13.8 9.1,136.1 22.2,328.6 l 398.3,-58.9 c -4,-59.5 -9.1,-137.4 -16.3,-251.8 -128.4,70.1 -320,-65.4 -268.3,-188.5 28.5,-67.7 123.2,-92.8 211.1,-55.9 63.6,26.8 108.8,79.8 115.3,135.1 h -0.3" transform="scale(1.02179)" class="color96d9c9 svgShape"></path><path fill="#9bc1f9" d="m 6719.26,14434.3 150.26,-121.9 177.36,86.4 158.75,-148.6 160.53,150.4 186.95,-160.1 164.88,120.2 205.05,-124.6 -47.17,-77.6 -153.31,93.1 -173.99,-126.8 -179.7,153.9 -163.21,-152.9 -175.19,164 -173.2,-84.4 -139.27,112.9 -102.15,-79.2 -55.67,71.8 159.08,123.4" class="color9bc1f9 svgShape"></path><path fill="#355389" d="m 16171.2,9919.76 c 2.5,-12.92 7.2,-25.1 13,-36.9 21.3,19.98 53,35.99 99.5,35.08 5.4,16.99 10.8,34.01 16.3,51 -37.8,1.75 -94.2,-4.47 -128.8,-49.18" transform="scale(1.13147)" class="color355389 svgShape"></path><path fill="#355389" d="m 16228.6,9661.63 c 23.5,68.32 47.5,140.8 71.4,212.73 -3.1,1.83 -5.1,2.95 -4.8,2.71 -18.6,8.44 -21.4,8.7 -21.2,8.65 -13.8,4.16 -25.2,4.67 -25,4.66 -3.5,0.23 -6.7,0.31 -9.9,0.37 -25.1,-78.51 -49.4,-156.36 -72,-227.42 20.3,-4.01 41.3,-4.46 61.5,-1.7" transform="scale(1.13458)" class="color355389 svgShape"></path><path fill="#355389" d="m 16151.6,9418.87 c 0.3,0.5 -34.4,-58.92 -81.9,-53.16 0,0 -54.6,5.06 -24.9,59.88 0,-0.13 1.5,4.39 1.5,4.52 3.4,9.77 -1.5,20.54 -11.5,24.62 -10.4,4.28 -20.6,-1.37 -26.9,-10.62 -3.4,-5.08 -8.1,-13.83 -9.3,-29.07 -7.6,-89.08 99.5,-117.58 161.8,-62.79 38.9,33.73 87.6,150.38 139.6,296.4 -19.3,1.11 -38.7,3.67 -57.8,7.86 -38.2,-118.08 -70.2,-208.77 -90.6,-237.64" transform="scale(1.12791)" class="color355389 svgShape"></path><path fill="#355389" d="m 16238.2,9705.84 c -7,-22 -13.8,-43.33 -20.4,-63.86 19,-4.18 38.4,-6.74 57.7,-7.84 8,22.69 16.3,46.08 24.5,70 -20.3,-2.78 -41.3,-2.32 -61.8,1.7" transform="scale(1.12961)" class="color355389 svgShape"></path><path fill="#355389" d="m 16176.7,9893.52 c 23.1,-1.07 39.4,-5.12 39.3,-5.11 8.1,-2.16 15.8,-4.77 23.1,-7.73 20.6,61.71 41.1,122.12 60.9,178.02 -28.1,-8.5 -53.9,-17.4 -77.5,-26.6 -15.4,-45.07 -30.6,-91.69 -45.8,-138.58" transform="scale(1.1401)" class="color355389 svgShape"></path><path fill="#355389" d="m 16221.6,10104.3 c -10.8,-29.8 -21.6,-60.9 -32.4,-92.8 23.6,9.2 49.4,18 77.4,26.6 11.3,31.9 22.5,62.4 33.4,90.8 -25.9,-8.9 -52.1,-16.9 -78.4,-24.6" transform="scale(1.14244)" class="color355389 svgShape"></path><path fill="#355389" d="m 16001.7,9792.82 c -3.8,29.75 -2.7,163.57 265.8,267.08 10.9,32.1 21.7,63.3 32.5,93.3 -31.2,-9.2 -62.5,-18.1 -93.3,-28.2 -74.3,-24.3 -151,-54.2 -208.2,-106.8 -74.6,-68.52 -93.7,-169.97 -71.3,-264.09 11.5,-48.98 37.6,-95.82 79.6,-127.42 31,-23.26 67.9,-38.4 106.4,-46.88 6.6,20.39 13.4,41.58 20.3,63.45 -62.9,12.39 -120.2,58.83 -131.8,149.56" transform="scale(1.13694)" class="color355389 svgShape"></path><path fill="#355389" d="m 16292.1,10140.6 c -8.1,68.6 -79.1,177.1 -166.4,104 -39.5,-33 -88.5,-145.7 -139.3,-286.75 26,7.61 51.8,15.44 77.3,24.24 55,143.61 103.5,234.91 136.4,197.61 19.5,-22.2 28.1,-60.8 12,-99 -17.1,-40.8 -61.9,-64.3 -102.1,-81.19 -15.2,-6.34 -30.7,-12.04 -46.3,-17.42 -10.8,-28.03 -21.7,-58.07 -32.9,-89.5 11.9,3.63 24.1,7.21 36.9,10.71 80,22.04 161.3,72.74 192.9,118.4 0,-0.1 39.4,51.9 31.5,118.9" transform="scale(1.15925)" class="color355389 svgShape"></path><path fill="#355389" d="m 16129.8,9750.04 c -2.7,2.3 20,-15.27 30.7,-38.2 -4.7,9.24 31.4,-42.39 -13.6,-103.81 -22.7,-31.11 -61.7,-51.14 -103.9,-56.92 -8.1,-23.53 -16.2,-46.56 -24.2,-68.89 3.1,-0.17 6.1,-0.34 9.2,-0.44 223.8,-7.4 272,265.09 103.4,333.35 -5.9,-17.83 -11.9,-35.75 -17.9,-53.72 4.9,-2.89 12.3,-7.56 16.3,-11.37" transform="scale(1.14771)" class="color355389 svgShape"></path><path fill="#355389" d="m 16237.3,9930.6 c -5.4,-16.92 -10.8,-33.88 -16.2,-50.81 3.2,-0.06 6.4,-0.13 9.9,-0.37 -0.2,0.01 11.2,-0.49 25,-4.64 -0.2,0.04 2.5,-0.22 21.2,-8.65 -0.4,0.24 1.7,-0.88 4.7,-2.7 6,18.16 12.1,36.27 18.1,54.28 -7.3,2.98 -15.1,5.6 -23.2,7.77 0,-0.01 -16.2,4.05 -39.5,5.12" transform="scale(1.13584)" class="color355389 svgShape"></path><path fill="#355389" d="m 16291.3,9881.72 c -8.7,-39.43 -38.5,-66.38 -66.6,-60.19 -28.1,6.19 -43.8,43.17 -35.1,82.6 8.7,39.44 38.5,66.38 66.6,60.19 28,-6.19 43.8,-43.17 35.1,-82.6" transform="scale(1.12901)" class="color355389 svgShape"></path><path fill="#355389" d="m 16291.2,9517.17 c -8.8,-39.93 -39,-67.22 -67.4,-60.95 -28.5,6.28 -44.4,43.72 -35.7,83.66 8.9,39.93 39.1,67.22 67.5,60.95 28.4,-6.27 44.4,-43.72 35.6,-83.66" transform="scale(1.11484)" class="color355389 svgShape"></path><path fill="#33538b" d="m 5866.28,4968.9 v 1143.6 c 0,1155.2 936.47,2091.7 2091.68,2091.7 h 1143.58 c 1155.16,0 2091.66,-936.5 2091.66,-2091.7 V 4968.9 c 0,-1155.2 -936.5,-2091.7 -2091.66,-2091.7 H 7957.96 c -1155.21,0 -2091.68,936.5 -2091.68,2091.7" class="colorb75742 svgShape"></path><path fill="#486fb4" d="m 7150.66,9103.2 c 6.34,206.9 -69.74,2240.5 444.34,3848.7 350.43,1098.3 740.41,1572.9 1207.61,1957.1 21.25,16.7 42.18,33.7 63.63,50.1 21.57,16.1 42.94,32.5 64.86,48 6.72,4.8 -24.33,-17.2 65.7,46.5 1524.4,1058.1 4613,1106.2 5909.4,-491.5 473.6,-574.8 787.4,-1501.6 924.6,-2240 239,-1283.4 171.6,-2687.4 138.2,-4069.3 h -624.9 c -112.3,1717.9 71.5,3875.8 -721.7,5458.2 l -29.7,58 c -35.2,41.1 -458,1071.2 -1823.8,1565 -1722.6,582.1 -3492.67,-262.6 -4085.82,-1827.6 C 8142.2,12118.9 8194.14,10492.5 8192.91,9103.2 H 7150.66" class="colorf47458 svgShape"></path><path fill="#486fb4" d="M 8586.76,7413.5 H 6685.74 v 2741.4 H 8586.76 V 7413.5" class="colorf47458 svgShape"></path><path fill="#33538b" d="m 8586.76,8580.8 c -136.87,27 -278.36,41.2 -423.15,41.2 h -982.62 c -170.38,0 -336.18,-19.6 -495.25,-56.7 V 7413.5 h 1901.02 v 1167.3" class="colorb75742 svgShape"></path><path fill="#50bfa5" d="m 8480.06,14850.6 c 44.24,-82.8 135.9,-120.8 206.71,-84.9 71.9,36.6 94.99,135.5 51.56,221 -43.43,85.5 -136.92,125.2 -208.83,88.7 -18.76,-9.6 -34.1,-23.4 -45.9,-40.1 l -114.19,245.5 418.96,73.5 195.26,-419.9 v 0 c 0.25,-0.5 0.42,-1 0.67,-1.5 43.43,-85.5 136.93,-125.2 208.83,-88.7 71.9,36.5 94.99,135.5 51.57,221 -43.43,85.5 -136.93,125.2 -208.84,88.6 -18.71,-9.5 -34.03,-23.3 -45.83,-39.9 l -209.12,449.7 c -6.76,14.6 -21.32,23.1 -34.67,20.4 l -521.79,-105.7 c -17.43,-3.6 -25.41,-24.4 -16.58,-43.4 l 271.78,-584.4 0.41,0.1" class="color50bfa5 svgShape"></path><path fill="#486fb4" d="M 5302.07,4884.3 V 6197 c 0,1108.5 898.61,2007.2 2007.11,2007.2 H 8199.9 C 9308.41,8204.2 10207,7305.5 10207,6197 V 4884.3 c 0,-1108.5 -898.59,-2007.1 -2007.1,-2007.1 h -890.72 c -1108.5,0 -2007.11,898.6 -2007.11,2007.1" class="colorf47458 svgShape"></path><path fill="#33538b" d="m 6068.78,5476.2 v 581 c 0,586.9 475.78,1062.7 1062.67,1062.7 h 580.99 c 586.89,0 1062.66,-475.8 1062.66,-1062.7 v -581 c 0,-586.8 -475.77,-1062.6 -1062.66,-1062.6 h -580.99 c -586.89,0 -1062.67,475.8 -1062.67,1062.6" class="colorb75742 svgShape"></path><path fill="#486fb4" d="m 5567.75,5476.2 v 581 c 0,586.9 475.78,1062.7 1062.67,1062.7 h 580.99 c 586.89,0 1062.66,-475.8 1062.66,-1062.7 v -581 c 0,-586.8 -475.77,-1062.6 -1062.66,-1062.6 h -580.99 c -586.89,0 -1062.67,475.8 -1062.67,1062.6" class="colorf47458 svgShape"></path><path fill="#f8a492" d="m 15955.3,8009.11 c 23.2,-62.46 63.5,-160.79 63.5,-160.79 1.2,-28.21 6.7,-145.51 13.8,-289.23 l 199.6,108.72 c 0,0 -30,232 -22.4,247.32 6.5,12.96 21.5,-0.46 74.8,99.07 15.4,28.74 13.3,76.55 13.3,76.55 0,0 -3.2,58.8 -16.9,62.67 -13.7,3.89 -27.7,-6.62 -31.3,-17.26 -3.5,-10.65 0.5,-33.98 -3.1,-44.62 -3.5,-10.65 -32.4,-26.39 -45.2,-27.28 -12.8,-0.89 -18.9,172.78 -18.9,172.78 0,0 1.3,49.61 3.1,65.99 1.5,13.98 9.1,55.33 9.1,55.33 0,0 7.7,59.6 -10.9,61.89 -10.8,1.35 -32.2,-48.88 -44.8,-100.97 -13.6,-56.11 -18.1,-114.45 -23.9,-114.35 -13.6,0.21 -17.7,95.33 -17.7,95.33 0,0 8.2,44.77 5.5,65.11 9.6,26.46 12.4,73.78 -10.1,74.99 -4.3,0.22 -26.5,-62.1 -26.5,-62.1 0,0 -6.6,-42.8 -11,-62.96 -7.7,-35.55 -3.1,-89.7 -6.4,-114.21 -2.8,-20.39 -8.4,-12.81 -10.4,-13.89 -1.6,-0.83 -1.9,26.79 -3.2,64.69 -0.6,19.09 -5.3,40.62 -2.6,62.77 2.6,20.49 2,49.35 1.2,66.73 -2.1,49.19 -32.3,40.55 -37.6,-5.29 -2.1,-17.46 -4.1,-36.5 -6.1,-55.81 -7.8,-75.05 1,-145.42 -6.8,-146.95 -10.2,-1.97 -18.7,127.06 -18.7,127.06 0,0 -24,69.11 -31.8,1.39 -9.1,-78.59 0.2,-140.68 0.8,-143.42 3.9,-18.46 -1.7,-86.78 21.6,-149.26" transform="scale(1.33271)" class="colorf8a492 svgShape"></path><path fill="#07345a" d="m 16025.4,6789.58 c 0,0 -91.8,96.83 -165.7,-21.02 0,0 -56.9,31.98 -96.9,-24.92 0,0 -102.8,30.93 -127.7,-122.81 0,0 -53,9.99 -59.9,-52.92 -7,-62.91 25,-104.8 25,-104.8 0,0 -29.8,-22.34 -16.3,-80.15 11.5,-49.15 52.1,-56.62 52.1,-56.62 0,0 11.1,-82.87 47,-107.87 35.9,-24.92 84.9,-12.98 84.9,-12.98 0,0 12.9,-44.89 54.8,-40.91 42,3.98 93.9,43.91 140.9,25.97 46.9,-18.02 168.6,0.97 168.6,0.97 0,0 136.8,60.89 95.9,200.66 0,0 71.9,64.93 9,142.78 0,0 45.9,121.83 -45,193.67 -90.8,71.91 -166.7,60.95 -166.7,60.95" transform="scale(1.43231)" class="color07345a svgShape"></path><path fill="#f7a491" d="m 16288.8,7342.6 11.2,-180.29 -40,-307.05 -172.3,-1.67 c 0,0 38.4,194.06 12,240.12 -20.8,36.25 -46.4,92.33 -48.4,112.63 -6.5,69.22 237.5,136.26 237.5,136.26" transform="scale(1.47905)" class="colorf7a491 svgShape"></path><path fill="#486fb4" d="m 16107.7,7261.72 73.6,-140.06 c 21.8,-41.2 70.4,-39.84 89.7,2.91 l 29,81.24 c 0,0 -124,105.76 -192.3,55.91" transform="scale(1.47525)" class="colorf47458 svgShape"></path><path fill="#f7cc7f" d="m 15032.3,7265.11 355.9,-36.34 c 18.2,-1.84 34.2,-12.34 43,-28.08 l 171.3,-308.85 c 21.9,-39.61 80.6,-37.26 99.3,3.99 l 145.1,321.56 c 7.4,16.38 22.5,28.13 40.4,31.44 l 351.7,64.76 c 45.1,8.31 61,63.87 26.8,94.02 l -266.2,235.07 c -13.5,11.98 -20.3,29.74 -17.9,47.52 l 46,348.87 c 5.9,44.75 -42.9,76.74 -82.6,54.12 l -309.7,-176.28 c -15.8,-8.98 -35.1,-9.76 -51.5,-2.07 l -323.3,150.86 c -41.5,19.35 -87.5,-16.45 -77.9,-60.58 l 74.8,-344.02 c 3.8,-17.52 -1.3,-35.77 -13.9,-48.79 l -245.8,-255.64 c -31.5,-32.79 -11.2,-86.9 34.5,-91.56" transform="scale(1.52896)" class="colorf7cc7f svgShape"></path><path fill="#f7a491" d="m 16147.3,2866.49 c 0,0 -105,-130.15 -131.1,-146.11 -26.1,-16.04 11.6,-205.07 82.9,-217.52 40.1,-6.96 60.4,48.7 60.4,48.7 l -9.5,42.99 150,154.46 -152.7,117.48" transform="scale(1.3654)" class="colorf7a491 svgShape"></path><path fill="#f7a491" d="m 16139,2741.09 c 0,0 -84.6,-137.76 -107.7,-156.32 -23.1,-18.63 36.5,-195.27 106.4,-198.39 39.3,-1.77 51.9,54.18 51.9,54.18 l -14.4,40.02 124.8,166.73 -161,93.78" transform="scale(1.41185)" class="colorf7a491 svgShape"></path><path fill="#07345a" d="m 16019.7,2587.47 c 0,0 48.6,-61.92 75.1,-86.54 34.2,-31.84 78,-62.9 78,-62.9 0,0 49.6,-90 63.2,-121.42 30.1,-69.9 64,-147.87 59.1,-187 -1.5,-12.6 -29.8,-25.9 -53.3,-18.61 -98,30.07 -348.4,259.18 -380.1,320.66 -36.4,70.97 158,155.81 158,155.81" transform="scale(1.41331)" class="color07345a svgShape"></path><path fill="#3c8f7c" d="m 16194.9,4532.95 c -8.8,24.65 -17.3,47.45 -25.4,68.89 -100.8,-21.98 -214.7,-46.22 -331.8,-71.15 l -14.3,-429.4 c 0,33.14 88.1,-684.87 88.1,-684.87 0,0 -207.2,-498.83 -362.9,-792.58 64,-79.77 80.8,-91.07 173.4,-145.44 241.7,289.71 550.5,800.39 563.6,888.58 7.6,50.67 14.4,870.37 -90.7,1165.97" transform="scale(1.46042)" class="color3c8f7c svgShape"></path><path fill="#50bfa5" d="m 15741.5,4537.51 c 31.7,-344.33 102.2,-1002.68 96.3,-1055.61 -17.7,-66.03 -318.4,-675.19 -374.9,-763.85 44.8,-67.51 110.9,-131.01 185.4,-151.16 14.8,-4.02 522.8,722.98 551,781.4 31.9,66.1 85.1,426.5 86,872.73 l 14.7,441.93 c -200.9,-42.85 -385.6,-84.85 -558.5,-125.44" transform="scale(1.41899)" class="color50bfa5 svgShape"></path><path fill="#486fb4" d="m 15971.2,5947.04 -230.3,-31.57 c 0,0 -184.5,-4.53 -207.4,-4.53 -22.8,0 -167.4,-839.97 -209.3,-1156.06 -41.8,-316.08 -9.4,-372.08 -9.4,-372.08 0,0 291.9,-65.68 507.9,-46.53 224.6,19.9 477.3,141.16 477.3,141.16 0,0 -181,593.54 -219,783.22 -38.1,189.68 -109.8,686.39 -109.8,686.39" transform="scale(1.4572)" class="colorf47458 svgShape"></path><path fill="#466eb6" d="m 16285.5,6861.73 c 0,0 14.5,-616.99 -8.8,-664.18 -33.8,-68.7 -414.8,-555.5 -414.8,-555.5 0,0 182.1,-761.51 258.5,-1024.45 7.7,-26.5 41.9,-197.56 41.9,-214.26 0,-36.98 -161,-83.91 -180.1,-81.14 -17.1,2.51 -157.6,726.9 -247.3,1081.39 -30.4,120.07 -82.5,233.59 -153.8,334.88 l -62.4,88.63 478.6,479.64 c 0,0 59,533.96 59,578.19 0,11.6 205.9,20.3 229.2,-23.2" transform="scale(1.47904)" class="color466eb6 svgShape"></path><path fill="#466eb6" d="m 15951.8,6067.95 -621.8,633.49 c 0,0 -86.6,599.01 -92.7,621.57 -6.1,22.16 -160.5,34.15 -222.7,40.21 -20,1.95 10.5,-638.04 40.2,-745.32 35.2,-126.71 505.1,-704.06 505.1,-704.06 0,0 84.2,-312.8 63.9,-542.14 -33.6,-381.05 -124.5,-905.15 -108.2,-921.56 101,-63.68 488.8,-70.51 513.4,-30.93 271,436.49 -77.2,1648.74 -77.2,1648.74" transform="scale(1.41975)" class="color466eb6 svgShape"></path><path fill="#f7a491" d="m 16245.3,6222.27 16.9,-125.18 c 0,0 37.8,-180.37 -10.9,-215.08 -48.6,-34.79 -206.7,220.18 -206.7,220.18 l 16.7,317.17 184,-197.09" transform="scale(1.41156)" class="colorf7a491 svgShape"></path><path fill="#486fb4" d="m 16095.7,6332.25 c 40.3,-108.44 136.2,-175.06 204.3,-200.91 l -14.3,106.39 -184.6,197.57 -5.4,-103.05" transform="scale(1.40806)" class="colorf47458 svgShape"></path><path fill="#07345a" d="m 16174.4,6791.08 c 0,-49.46 28.1,-89.56 62.8,-89.56 34.7,0 62.8,40.1 62.8,89.56 0,49.45 -28.1,89.55 -62.8,89.55 -34.7,0 -62.8,-40.1 -62.8,-89.55" transform="scale(1.3791)" class="color07345a svgShape"></path><path fill="#07345a" d="m 16149.2,6892.36 c 0,-28.05 33.8,-50.81 75.4,-50.81 41.7,0 75.4,22.76 75.4,50.81 0,27.99 -33.7,50.74 -75.4,50.74 -41.6,0 -75.4,-22.75 -75.4,-50.74" transform="scale(1.39734)" class="color07345a svgShape"></path><path fill="#f7a491" d="m 16066.4,6707.86 c 98.1,33.71 202.6,-31.39 217.5,-132.45 6.5,-43.91 12.4,-99.15 13.5,-159.53 2.6,-145.19 -72.6,-286.57 -138.5,-286.57 -65.9,0 -248.2,94.02 -254.8,300.22 -4,127.31 59.5,242.93 162.3,278.33" transform="scale(1.42098)" class="colorf7a491 svgShape"></path><path fill="#f7a491" d="m 16300,6552.82 c 0,-32.72 -21.7,-59.25 -48.5,-59.25 -26.7,0 -48.4,26.53 -48.4,59.25 0,32.71 21.7,59.25 48.4,59.25 26.8,0 48.5,-26.54 48.5,-59.25" transform="scale(1.3907)" class="colorf7a491 svgShape"></path><path fill="#07345a" d="m 16208.8,6720.64 c 67.6,-53.44 91.2,-134.71 52.9,-181.51 -38.4,-46.74 -124.2,-41.3 -191.7,12.21 -67.5,53.43 -91.2,134.7 -52.8,181.5 38.3,46.74 124.1,41.3 191.6,-12.2" transform="scale(1.43354)" class="color07345a svgShape"></path><path fill="#07345a" d="m 16300,6788.33 c 0,-23.69 -28.5,-42.84 -63.7,-42.84 -35.2,0 -63.7,19.15 -63.7,42.84 0,23.61 28.5,42.76 63.7,42.76 35.2,0 63.7,-19.15 63.7,-42.76" transform="scale(1.40999)" class="color07345a svgShape"></path><path fill="#07345a" d="m 16300,6530.43 c 0,-30 -24,-54.33 -53.8,-54.33 -29.6,0 -53.7,24.33 -53.7,54.33 0,30.08 24.1,54.41 53.7,54.41 29.8,0 53.8,-24.33 53.8,-54.41" transform="scale(1.4264)" class="color07345a svgShape"></path><path fill="#f7a491" d="m 16211.4,7213.33 32.4,51.55 c 0,0 56.2,49.62 41.4,69.48 -24.6,33.01 -110.2,-47.09 -110.2,-47.09 0,0 -9.5,-71.74 36.4,-73.94" transform="scale(1.4688)" class="colorf7a491 svgShape"></path><path fill="#f7a491" d="m 16285,7155.72 c 0,0 15,121.98 12.1,125.61 -16.2,20.25 -67.3,54 -86.2,46.36 -18.8,-7.64 24.7,-72.44 24.7,-72.44 0,0 -27.3,-5.65 -32.8,-29.66 -5.5,-24.02 82.2,-69.87 82.2,-69.87" transform="scale(1.48041)" class="colorf7a491 svgShape"></path><path fill="#07345a" d="m 16067,2732.91 c 0,0 41.7,-70.21 65.7,-99.08 31,-37.3 72,-75.13 72,-75.13 0,0 39,-99.22 48.9,-133.37 21.8,-75.94 46.4,-167.67 36.2,-207.33 -3.3,-12.71 -31.3,-37.02 -54.4,-22.04 -89.2,58.1 -327.4,329.99 -351.8,397.48 -28.1,77.85 183.4,139.47 183.4,139.47" transform="scale(1.36159)" class="color07345a svgShape"></path></g></svg></g></svg>