<?xml version="1.0" encoding="UTF-8" standalone="yes"?>
<svg xmlns="http://www.w3.org/2000/svg" viewBox="0 0 3733.333 2666.667" width="500" height="500">
  <metadata/>
  <g transform="matrix(.13333 0 0 -.13333 0 2666.667)">
    <path d="M27999.977 0H0v20000.057h27999.977V0" class=" ns-fill-0" fill="#fff"/>
    <path d="M6382.25 10896.1c13.62-5.9 27.98-9.4 42.71-11.5-4.96 32.7.36 72.4 31.07 115.2-12.37 15.9-24.75 31.9-37.07 47.9-25.93-34.2-56.25-90.7-36.71-151.6M6663.49 10842.7c-48.75 65.9-101.09 134.9-152.97 203.5-3.67-1.7-6.06-2.9-5.55-2.6-19.91-12.1-21.9-14.5-21.79-14.4-12.79-10.3-20.54-20.5-20.46-20.4-2.39-3-4.55-6-6.69-9 57.3-73.9 114.46-146.6 166.37-213.4 16.83 16.4 30.7 35.7 41.09 56.3M6831.67 10490.3c-.25.6 32.77-69.6-2.95-110.1 0 0-39.58-47.5-71.52 15.2.09-.1-3.13 4.2-3.22 4.3-6.95 9.4-20.1 11.7-30.24 5-10.67-6.9-11.96-20.1-7.35-31.8 2.53-6.4 7.66-16.3 21.02-27.3 78.01-63.8 172.93 17.4 161.81 110.3-6.53 57.7-83.83 177.5-186.27 319.2-13.37-17.2-28.16-33.7-44.21-48.7 85.3-111 149.15-198.6 162.93-236.1" class=" ns-fill-1" fill="#f7cc7f"/>
    <path d="M6622.4 10786.4c16-20.6 31.49-40.6 46.34-60 16.05 15 30.84 31.5 44.21 48.7-15.93 22.1-32.48 44.6-49.46 67.6-10.39-20.6-24.26-39.9-41.09-56.3M6418.96 11047.7c15.94 21.1 30.2 33.7 30.17 33.6 7.29 6.3 14.71 11.8 22.22 16.8-44.67 59.2-88.21 117.4-127.93 172.2-10.09-31.9-18.38-61.9-25.11-90.1 32.46-43.5 66.37-88 100.65-132.5" class=" ns-fill-1" fill="#f7cc7f"/>
    <path d="M6251.93 11270.8c21.14-29.5 43.38-59.7 66.38-90.6 6.73 28.2 15.02 58.2 25.11 90.1-22.71 31.3-44.17 61.5-63.89 90.2-8.32-30.1-17.82-59.9-27.6-89.7" class=" ns-fill-1" fill="#f7cc7f"/>
    <path d="M6397.33 10759.2c-30.32 15.6-154.95 102.9-79.02 421-23 30.9-45.24 61.1-66.38 90.6-11.54-35.2-23.35-70.2-33.74-105.5-25.1-85.3-46.43-176.4-34.04-263.9 16.14-114 98.91-197.2 201.43-237 53.34-20.7 114.01-26.5 170.71-7.4 41.73 14 79.68 38.8 112.45 69.4-14.85 19.4-30.34 39.4-46.34 60-52.16-51-132.59-74.8-225.07-27.2" class=" ns-fill-1" fill="#f7cc7f"/>
    <path d="M6278.13 11682.8c-70.89 37.3-221.09 40.7-208.61-90.6 5.64-59.4 81.03-180.3 182.41-321.4 9.78 29.8 19.28 59.6 27.6 89.7-101.01 146.8-156.38 253.2-99.13 260.1 33.97 4.1 76.47-13.1 102.44-53.5 27.73-43.2 20.8-101.4 10.41-151-3.91-18.7-8.63-37.2-13.72-55.6 19.72-28.7 41.18-58.9 63.89-90.2 4.33 13.7 8.98 27.8 13.99 42.3 31.54 90.9 36.51 201.9 13.63 262 .05-.1-23.71 71.8-92.91 108.2M6531.88 11054.3c-3.91-1.1 27.41 8.9 56.06 4.1-11.79 1.6 60.51 2.2 89.35-80.3 14.6-41.8 8.24-91.6-13.8-135.4 16.98-23 33.53-45.5 49.46-67.6 2.16 2.8 4.3 5.6 6.37 8.4 152.56 206.8-73.8 429.6-247.97 314.6 12.98-17.2 26.06-34.5 39.17-51.9 5.89 2.7 15.11 6.7 21.36 8.1" class=" ns-fill-1" fill="#f7cc7f"/>
    <path d="M6418.96 11047.7c12.32-16 24.7-32 37.07-47.9 2.14 3 4.3 6 6.69 9-.08-.1 7.67 10.1 20.46 20.4-.11-.1 1.88 2.3 21.79 14.4-.51-.3 1.88.9 5.55 2.6-13.11 17.4-26.19 34.7-39.17 51.9-7.51-5-14.93-10.5-22.22-16.8.03.1-14.23-12.5-30.17-33.6M6491.99 10936.9c31.13-33.3 37.12-78.3 13.39-100.5-23.72-22.1-68.18-13.1-99.31 20.2-31.11 33.3-37.11 78.3-13.38 100.4 23.72 22.2 68.18 13.2 99.3-20.1M6811.37 10436.9c31.12-33.3 37.12-78.3 13.39-100.5-23.72-22.1-68.19-13.1-99.31 20.2-31.12 33.3-37.12 78.3-13.39 100.5 23.73 22.1 68.18 13.1 99.31-20.2" class=" ns-fill-1" fill="#f7cc7f"/>
    <path d="M16201.2 6338.7h-1346.7v2652.4h1346.7V6338.7" class=" ns-fill-2" fill="#f47458"/>
    <path d="M16201.2 7618.4c-12 .3-24 .5-36 .5h-1310.7V6338.7h1346.7v1279.7" class=" ns-fill-3" fill="#22636b"/>
    <path d="M13189.075 4362.798v1585.906c0 760.897 616.833 1377.698 1377.698 1377.698h1654.64c760.864 0 1377.697-616.8 1377.697-1377.698V4362.798c0-760.8-616.833-1377.697-1377.697-1377.697h-1654.64c-760.865 0-1377.698 616.897-1377.698 1377.697" class=" ns-fill-2" fill="#f47458"/>
    <path d="M13742.15 4495.211v1252.404c0 578.206 468.819 1047.004 1047.025 1047.004h1209.956c578.206 0 1046.92-468.798 1046.92-1047.004V4495.21c0-578.196-468.714-1046.9-1046.92-1046.9h-1209.956c-578.206 0-1047.025 468.704-1047.025 1046.9" class=" ns-fill-3" fill="#22636b"/>
    <path d="M14877.5 5872.9c-58.7 0-106.2-47.5-106.2-106.2 0-58.6 47.5-106.1 106.2-106.1 58.6 0 106.1 47.5 106.1 106.1 0 58.7-47.5 106.2-106.1 106.2M15350.4 5872.9c-58.6 0-106.1-47.5-106.1-106.2 0-58.6 47.5-106.1 106.1-106.1 58.6 0 106.1 47.5 106.1 106.1 0 58.7-47.5 106.2-106.1 106.2M15823.3 5872.9c-58.6 0-106.1-47.5-106.1-106.2 0-58.6 47.5-106.1 106.1-106.1 58.7 0 106.2 47.5 106.2 106.1 0 58.7-47.5 106.2-106.2 106.2M14877.5 5487.7c-58.7 0-106.2-47.5-106.2-106.1 0-58.6 47.5-106.2 106.2-106.2 58.6 0 106.1 47.6 106.1 106.2s-47.5 106.1-106.1 106.1M15350.4 5487.7c-58.6 0-106.1-47.5-106.1-106.1 0-58.6 47.5-106.2 106.1-106.2 58.6 0 106.1 47.6 106.1 106.2s-47.5 106.1-106.1 106.1M15823.3 5487.7c-58.6 0-106.1-47.5-106.1-106.1 0-58.6 47.5-106.2 106.1-106.2 58.7 0 106.2 47.6 106.2 106.2s-47.5 106.1-106.2 106.1M14877.5 5102.6c-58.7 0-106.2-47.6-106.2-106.2s47.5-106.1 106.2-106.1c58.6 0 106.1 47.5 106.1 106.1 0 58.6-47.5 106.2-106.1 106.2M15350.4 5102.6c-58.6 0-106.1-47.6-106.1-106.2s47.5-106.1 106.1-106.1c58.6 0 106.1 47.5 106.1 106.1 0 58.6-47.5 106.2-106.1 106.2M15823.3 5102.6c-58.6 0-106.1-47.6-106.1-106.2s47.5-106.1 106.1-106.1c58.7 0 106.2 47.5 106.2 106.1 0 58.6-47.5 106.2-106.2 106.2" class=" ns-fill-2" fill="#f47458"/>
    <path d="M9409.493 2985.108c0-27.706 26.704-50.102 59.602-50.102H24325.91c32.912 0 59.542 22.396 59.542 50.102 0 27.692-26.63 50.193-59.542 50.193H9469.095c-32.898 0-59.602-22.5-59.602-50.193" class=" ns-fill-4" fill="#13375b"/>
    <path d="M13191.6 3025.4s1382.7-47.2 1685.9 96.5c303.2 143.7 9.1 333.6 9.1 333.6s657 155.8 700.2 360.8c43.2 205-272.1 172.9-272.1 172.9s629.3 439.8 539.1 574.9c-168.1 251.5-879.6-191.6-879.6-191.6s236.9 235.6 69.9 323.2c-251.8 131.9-617.5-502.8-617.5-502.8s18.3 153.6-175.4 163.1c-347.4 16.9-1059.6-1330.6-1059.6-1330.6" class=" ns-fill-5" fill="#466eb6"/>
    <path d="M14239.1 4466.7c193.7-9.5 187.5-273.8 187.5-273.8s368.3 749.9 620.1 617.9c166.9-87.5-14.3-403.2-14.3-403.2s653.3 408 821.4 156.5l-2546.6-1442.2c82.3 157.8 607.4 1360.6 931.9 1344.8" class=" ns-fill-6" fill="#355389"/>
    <path d="M13139.9 3025.1s1189.7 827.8 1360.8 1191.7c171.1 363.9-156.6 333.5-156.6 333.5s489.4 644.5 373.2 867.1c-116.1 222.7-383.4-47.2-383.4-47.2s247.6 886.3 61.2 942.6c-347.1 104.8-686.7-1017.5-686.7-1017.5s-129.6 620.9-350.8 574.8c-333.5-69.6-.7-987.6-.7-987.6s-98.4 299-284.8 160.3c-334.5-248.8 67.8-2017.7 67.8-2017.7" class=" ns-fill-5" fill="#466eb6"/>
    <path d="M12746.7 5028.5c210 99.4 252.2 308.4 252.2 308.4s1.4 519.1 335 588.7c221.1 46.1 375.9-370.9 375.9-370.9s338.2 862.9 685.3 758.1L13136.3 3039c-43.9 208.7-639.8 1871.2-389.6 1989.5M7481.89 2880.2S4636.35 4372.7 4129.41 5152.9c-506.92 780.1 111.86 843.8 111.86 843.8s-1324.7 1322.9-1128.64 1869.8c196.05 547 893.64 12.6 893.64 12.6s-846.58 1953.4-437.18 2141.2c762.56 349.6 1798.35-1731.1 1798.35-1731.1S5150.83 9190 5672.29 9154c786.39-54.4 727.06-2084.9 727.06-2084.9s99.16 777.5 570.15 518.3c845.05-465 512.39-4707.2 512.39-4707.2" class=" ns-fill-6" fill="#355389"/>
    <path d="M7144.88 7899.3c-367.68 210.4-744.52-385.5-744.52-385.5s58.32 1585.8-728.07 1640.1c-521.46 36.1-304.85-864.7-304.85-864.7s-1035.79 2080.7-1798.35 1731.1l3916.7-7107.1c34.84 492.2 387.46 4569.2-340.91 4986.1" class=" ns-fill-5" fill="#466eb6"/>
    <path d="M7457.83 2888.8S4990.7 2651.3 4361.61 2941c-629.11 289.7-163.6 613.3-163.6 613.3s-1359.53 306.4-1453.43 728.6c-93.89 422.2 557.55 363 557.55 363s-1309.08 893.3-1125.95 1174.2c341.12 523.1 1819.88-375.2 1819.88-375.2s-494.27 481-151.68 665.5c516.66 278.2 1286.06-1023.6 1286.06-1023.6s-41.29 316.8 358.2 340.8c716.76 43 1969.19-2538.8 1969.19-2538.8" class=" ns-fill-6" fill="#355389"/>
    <path d="M5511.1 5656.3c-399.48-24-380.66-569.5-380.66-569.5S4353.04 6626.2 3836.38 6348c-342.6-184.5 38.84-832 38.84-832s-1357.92 827.2-1699.04 304.1l5289.49-2917.8c-173.65 323.7-1285.06 2794.1-1954.57 2754" class=" ns-fill-5" fill="#466eb6"/>
    <path d="M18207.909 13196.905c-65.583-230.157-305.382-363.566-535.54-297.87-230.158 65.695-363.454 305.494-297.871 535.764 65.695 230.157 305.494 363.566 535.652 297.87 230.158-65.695 363.454-305.606 297.759-535.764" class=" ns-fill-1" fill="#f7cc7f"/>
    <path d="M17549.626 13313.357c-35.108-122.986 36.21-251.27 159.196-286.378 123.096-35.107 251.27 36.211 286.378 159.197l-445.574 127.18" class=" ns-fill-7" fill="#efefef"/>
    <path d="M15992.7 15915.9l-239.1 19.4-32.7-221.3-236.4 8.7-57.3-207.6-178-22.5 11.4-90.1 238.1 30.1 54.2 196.7 246-9 32.1 217.6 216.7-17.5-55 95.5M6901.85 13025.7l-11.71-145.6-236.49-7.1-43.4-210.9-176.1-34.2 17.31-89.1 235.55 45.7 41.12 199.9 246.01 7.3 17.63 219.2-89.92 14.8" class=" ns-fill-8" fill="#f48c7f"/>
    <path d="M13211.3 3002.2H9947.25c-169.52 0-306.93 137.4-306.93 306.9v6375c0 169.5 137.41 306.9 306.93 306.9h3264.05c169.5 0 306.9-137.4 306.9-306.9v-6375c0-169.5-137.4-306.9-306.9-306.9" class=" ns-fill-9" fill="#184655"/>
    <path d="M9947.25 3248.9c-33.19 0-60.19 27-60.19 60.2v6375c0 33.2 27 60.2 60.19 60.2h3264.05c33.1 0 60.1-27 60.1-60.2v-6375c0-33.2-27-60.2-60.1-60.2H9947.25" class=" ns-fill-10" fill="#3c8f7c"/>
    <path d="M12240.3 8785c0-326.2-264.5-590.7-590.7-590.7-326.2 0-590.7 264.5-590.7 590.7 0 326.2 264.5 590.7 590.7 590.7 326.2 0 590.7-264.5 590.7-590.7" class=" ns-fill-6" fill="#355389"/>
    <path d="M11855.6 8785c0-113.8-92.2-206-206-206s-206.1 92.2-206.1 206 92.3 206.1 206.1 206.1 206-92.3 206-206.1" class=" ns-fill-9" fill="#184655"/>
    <path d="M12487 6496.6c0-462.5-374.9-837.4-837.4-837.4s-837.4 374.9-837.4 837.4 374.9 837.4 837.4 837.4 837.4-374.9 837.4-837.4" class=" ns-fill-6" fill="#355389"/>
    <path d="M11941.7 6496.6c0-161.3-130.8-292.1-292.1-292.1s-292.1 130.8-292.1 292.1 130.8 292.1 292.1 292.1 292.1-130.8 292.1-292.1" class=" ns-fill-9" fill="#184655"/>
    <path d="M12416.6 4357.4c0-462.4-374.9-837.4-837.4-837.4-462.4 0-837.3 375-837.3 837.4 0 462.5 374.9 837.4 837.3 837.4 462.5 0 837.4-374.9 837.4-837.4" class=" ns-fill-6" fill="#355389"/>
    <path d="M11871.4 4357.4c0-161.3-130.8-292.1-292.2-292.1-161.3 0-292.1 130.8-292.1 292.1 0 161.4 130.8 292.2 292.1 292.2 161.4 0 292.2-130.8 292.2-292.2" class=" ns-fill-9" fill="#184655"/>
    <path d="M20142.17 12901.74l190.717-19.416c9.708-1.022 18.394-6.643 22.993-15.074l91.973-165.564c11.624-21.23 43.176-19.978 53.012 2.134l77.794 172.372a29.926 29.926 0 0021.715 16.862l188.545 34.617c24.142 4.471 32.701 34.235 14.434 50.458l-142.685 125.951c-7.41 6.515-10.986 15.968-9.709 25.548l24.782 186.884c3.066 24.015-23.121 41.132-44.326 29.125l-165.934-94.528a30.36 30.36 0 00-27.72-1.15l-173.215 80.86c-22.227 10.347-46.88-8.814-41.771-32.446l40.11-184.33c2.044-9.452-.766-19.288-7.409-26.186l-131.7-137.065c-17.117-17.5-6.003-46.497 18.395-49.052" class=" ns-fill-11" fill="#96d9c9"/>
    <path d="M9070.62 10765.9l190.76-19.5c9.72-1 18.32-6.6 23-15l91.83-165.6c11.78-21.2 43.21-19.9 53.19 2.2l77.79 172.3c3.96 8.8 12.07 15.1 21.67 16.9l188.51 34.7c24.19 4.4 32.68 34.2 14.38 50.4l-142.7 126c-7.26 6.4-10.86 15.9-9.6 25.4l24.68 187c3.16 24-23.02 41.2-44.32 29l-165.97-94.4c-8.45-4.9-18.78-5.3-27.6-1.2l-173.27 80.9c-22.23 10.4-46.9-8.8-41.76-32.5l40.12-184.3c2.04-9.4-.75-19.2-7.46-26.2l-131.76-137c-16.9-17.6-5.97-46.6 18.51-49.1M20021.865 10897.75l190.757-19.47c9.652-1.003 18.289-6.63 22.988-15.05l91.822-165.547c11.811-21.234 43.18-19.977 53.214 2.134l77.725 172.354a29.935 29.935 0 0021.718 16.84l188.597 34.723c24.13 4.445 32.64 34.227 14.352 50.395l-142.75 125.998c-7.24 6.401-10.923 15.926-9.526 25.451l24.512 186.998c3.302 23.978-22.988 41.123-44.197 29.007l-165.992-94.49c-8.509-4.8-18.796-5.219-27.559-1.104l-173.358 80.862c-22.098 10.364-46.864-8.814-41.783-32.462l40.132-184.394c2.16-9.398-.635-19.177-7.366-26.162l-131.828-137.01c-16.891-17.577-5.842-46.584 18.542-49.073" class=" ns-fill-1" fill="#f7cc7f"/>
    <path d="M19227.23 7273.571c-8.409-3.488 110.808-157.09 226.887-265.69 93.616-117.496 181.46-256.503 211.578-408.209 46.055-230.49 7.78-1369.496 47.812-1450.488 343.469-335.901 592.192-1178.8 662.09-1435.893 13.679-50.108 41.287-95.298 79.436-130.498l-15.31-290.499-170.668-157.303s38.024 236.802-37.898 412.502c0 0-864.884 1309.787-916.335 1409.991-98.134 285.103-455.282 1745.994-455.282 1745.994l-82.95 335.701s449.886 234.104 450.64 234.392" class=" ns-fill-12" fill="#f7a491"/>
    <path d="M20642.157 3489.411s-108.15-166.505-117.268-231.407c-9.244-64.89-66.865-211.994-130.438-221.39-14.437-2.103-262.016-20.2-260.243 10.7 1.393 23.593 91.053 57.393 132.591 86.102 71.931 49.693 183.5 454.19 183.5 454.19s187.172-46.4 191.858-98.195" class=" ns-fill-2" fill="#f47458"/>
    <path d="M18488.098 6768.818s-557.068-1191.106-560.684-1400.601c-2.916-179.508 97.394-1186.709 69.284-2025.402-.933-30.302-39.19-70.601-95.06-96.098-31.493-14.405-179.625-87.106-179.625-87.106l-24.378-49.397 522.543 37.196 10.614 121.2-3.266 21.496s208.084 1254.71 186.856 1609.513c-3.382 55.8-30.56 389.493-30.56 389.493l628.335 1213.104-395.056 519.207-129.003-252.605" class=" ns-fill-12" fill="#f7a491"/>
    <path d="M19765.054 5337.923c-.121-.206-.121-.206-.243.097l.243-.097M17806.277 5902.187l1093.338 1579.697c67.565-27.294 131.234-51.094 203.304-64.996 156.8-30.301 313.843-25.407 472.59-20.209 0-5.892.244-11.09.853-15.497 18.26-130.298 191.008-331.897 226.556-727.099 40.539-448.596 16.07-1227.798 2.313-1278.99-726.904 88.395-1792.729 310.69-1998.954 527.094" class=" ns-fill-4" fill="#13375b"/>
    <path d="M19233.826 9587.49c-4.485-46.101-28.798-81.402-54.645-78.806-25.848 2.703-43.198 42.206-38.83 88.306 4.366 46.101 28.68 81.296 54.527 78.7 25.847-2.597 43.197-42.1 38.948-88.2" class=" ns-fill-12" fill="#f7a491"/>
    <path d="M18235.77 3029.7h-685.413c-24.407 2.206-30.789 33.006-17.018 46.799 21.608 21.507 102.219 43.306 188.651 83.107 151.928-15.797 484.783 74.296 508.742 109.093 13.77-69.594 18.585-235.998 5.038-238.999" class=" ns-fill-2" fill="#f47458"/>
    <path d="M17572.132 8714.52c3.266 8.806 11.314 1.703 21.112-12.994-12.714 53.502-10.965 120.698-.934 126.693 12.48 7.407 19.596-86.3 47.24-136.992 27.643-50.703 52.837-113.303 56.57-110.504 6.181 4.409-32.426 72.608-59.72 124.71-27.177 51.998-6.299 291.4 18.896 119.789 25.427-171.6 191.404-302.702 196.186-250.098 4.9 52.698-22.978 132.304 11.198 120.698 34.175-11.699 44.206-129.492 74.182-214.697 3.5-9.798 3.85-39.902 3.616-75.302-.117-18.394 11.43-34.899 28.693-41.197l436.23-158.606 284.6 495.903 322.156-68.596s-259.055-673.998-479.853-775.603c-100.776-46.399-571.298 283.597-756.404 439.706-183.123 154.489-217.998 379.497-203.768 417.09" class=" ns-fill-12" fill="#f7a491"/>
    <path d="M18831.346 9013.517c-113.711-54.19-403.75-727.401-403.75-727.401l373.023-228.796 117.668 342.402s52.957 680.602-86.941 613.795" class=" ns-fill-1" fill="#f7cc7f"/>
    <path d="M18938.69 9561.212c-55.31 137.595-110.106 276.205-47.72 445.108 50.68 136.707 160.914 227.095 299.32 263.29 392.318 102.582 386.272-162.162 953.655-106.723 586.934 57.343 822.582-580.67 768.3-791.878-259.701-1010.201-1426.366-518.002-1584.323-350.399-117.438 124.603-353.472 452.105-389.231 540.602" class=" ns-fill-3" fill="#22636b"/>
    <path d="M19709.682 9069.936s63.068 3.003 233.426-74.802c170.107-77.804 535.071-583.804 535.071-583.804l-297.248-231.303-509.19 333.003s-64.45 556.906 37.94 556.906" class=" ns-fill-1" fill="#f7cc7f"/>
    <path d="M18800.617 7397.714c175.187-93.097 849.272-78 849.272-78 16.679 175.21 105.916 644.307 145.117 1021.11 48.94 262.294-32.018 337.494-85.341 729.101-.366 2.69-271.85 21.597-271.85 21.597l-282.563-7s-245.676-19.698-323.956-71c-5.357-3.506-36.4-446.1-12.174-759.707 16.678-213.803 40.783-386.3 39.323-527.702-2.314-205.391-57.828-328.4-57.828-328.4" class=" ns-fill-13" fill="#fae0b2"/>
    <path d="M18745.097 8469.232c5.474-167.2 221.149-328.207 527.813-328.207 306.543 0 555.062 135.608 555.062 302.905 0 167.407-203.754 402.8-510.175 402.8-306.664 0-579.877-165.4-572.7-377.498" class=" ns-fill-13" fill="#fae0b2"/>
    <path d="M19371.79 9506.99s5.847-42.497 15.036-100.998c16.708-107.096 25.3-282.898 46.782-336.303 18.975-46.996-145.238-491.697-199.18-367.797-94.757 217.296-91.893 282.707-96.786 340.504-5.012 57.296-20.407 253.397-30.67 384.099-5.49 70.698-9.548 122.193-9.548 122.193l274.365-41.698" class=" ns-fill-12" fill="#f7a491"/>
    <path d="M19106.39 9428.778c-5.114 69.196-8.92 119.898-8.92 119.898l274.262-41.699s6.898-40.009 14.51-96.408c-111.203-64.497-211.227-44.195-279.852 18.21" class=" ns-fill-2" fill="#f47458"/>
    <path d="M19285.73 10127.776s108.192-24.365 174.837-126.242c66.885-101.828 112.636-401.827-107.232-541.829-219.869-140.002-390.984 58.095-393.746 251.197-2.762 193.199 38.666 450.94 326.14 416.874" class=" ns-fill-12" fill="#f7a491"/>
    <path d="M18909.262 9771.367c18.676-46.597 56.028-75.604 83.109-64.596 27.197 10.89 33.967 57.499 15.174 104.096s-56.028 75.603-83.109 64.596c-27.197-10.89-33.967-57.5-15.174-104.096" class=" ns-fill-12" fill="#f7a491"/>
    <path d="M19253.33 10134.121s137.795-309.195 258.968-336.79c121.052-27.607 119.366-183.205 119.366-183.205s-2.77 359.303-116.235 441.69c-113.463 82.4-262.099 78.305-262.099 78.305" class=" ns-fill-3" fill="#22636b"/>
    <path d="M19464.127 9733.122c-15.875-50.198-1.323-99.711 32.592-110.499 33.914-10.703 74.443 21.19 90.318 71.389 15.995 50.198 1.443 99.699-32.592 110.499-33.914 10.703-74.323-21.19-90.318-71.39" class=" ns-fill-12" fill="#f7a491"/>
    <path d="M17164.22 8858.619l188.108 337.39-26.614 14.809-188.108-337.402 26.614-14.797" class=" ns-fill-14" fill="#ffd09f"/>
    <path d="M17164.22 8858.619l188.108 337.39-15.436 8.603-188.108-337.402 15.436-8.591" class=" ns-fill-15" fill="#ffb769"/>
    <path d="M17295.451 8795.24l184.017 329.997-26.595 14.798-183.91-329.997 26.488-14.799" class=" ns-fill-14" fill="#ffd09f"/>
    <path d="M17295.451 8795.24l184.017 329.997-19.839 11.002-183.91-330.008 19.732-10.992" class=" ns-fill-15" fill="#ffb769"/>
    <path d="M17428.249 8721.18l183.901 329.996-26.472 14.802-184.01-330.006 26.58-14.792" class=" ns-fill-14" fill="#ffd09f"/>
    <path d="M17428.249 8721.18l183.901 329.996-16.1 9-184.009-330.006 16.208-8.99" class=" ns-fill-15" fill="#ffb769"/>
    <path d="M19718.987 6732.276c-120.295 108.997-195.142 335.503-239.948 426.9 0 0-58.671 119.395-234.812 122.207-176.142 2.696-371.926 107.598-461.537 309.198-89.483 201.69 128.126 505.29 128.126 505.29l9.5 16.908s143.66 344.798 362.297 374.788c218.636 29.9 410.826-81.6 505.83-229.895 95.003-148.296 227.237-135.393 227.237-135.393 101.294 9.898 333.41 65.295 489.396 20.387 145.586-41.891 261.26-149.296 331.87-284.895 76.645-147.1 89.483-348.495-20.798-601.397-6.034-13.493-64.191-132.491-83.577-164.702-17.204-33.496-87.814-145.6-96.288-157.796-157.012-226.801-335.08-321.792-500.437-334.001-152.519-11.298-304.652 30.606-416.86 132.401" class=" ns-fill-2" fill="#f47458"/>
    <path d="M19322.276 7500.896c143.382-79.9 329.209-19.908 414.947 134.092 85.859 154 39.28 343.608-104.102 423.508-143.383 79.998-329.33 19.896-415.19-134.103-85.738-153.903-39.038-343.596 104.345-423.497" class=" ns-fill-3" fill="#22636b"/>
    <path d="M19376.749 7598.618c93.192-51.902 213.943-12.909 269.544 87.089 55.843 100.009 25.504 223.214-67.688 275.104-93.072 52-213.823 13.006-269.545-87.1-55.843-99.998-25.383-223.202 67.689-275.093" class=" ns-fill-4" fill="#13375b"/>
    <path d="M17128.295 9008.56c13.687 26.7 44.972 38.204 69.957 25.701l314.264-158.196c24.984-12.503 34.218-44.408 20.53-71.098-13.578-26.701-44.972-38.205-69.848-25.604l-314.372 158.099c-24.876 12.503-34.11 44.397-20.531 71.098zm398.451-107l-299.816 184.202c-23.79 14.6-30.525 47.297-14.882 72.901 15.534 25.702 47.47 34.598 71.26 19.999l299.816-184.203c23.79-14.6 30.525-47.297 14.883-72.89-15.426-25.712-47.471-34.609-71.261-20.009zm-397.039 408.706c-115.147-60.3-184.126-182.703-175.762-312.406l.218-2.694 541.732-269.498c23.03 7.495 101.351-11.004 101.351-11.004l109.281 196.097s-56.922 56.9-62.679 80.396l-514.141 319.109" class=" ns-fill-16" fill="#f70"/>
    <path d="M19308.964 7873.685c-28.89-51.896-34.74-109.999-20.534-161.094l-1691.165 1002.092 109.354 196.097 1752.647-929.389c-60.169-9.706-116.875-47.705-150.302-107.706" class=" ns-fill-9" fill="#184655"/>
    <path d="M20030.894 6986.598l409.306 734.405-109.349 60.895-409.305-734.393 109.348-60.907" class=" ns-fill-3" fill="#22636b"/>
    <path d="M17647.973 9036.581l.541 1.094c4.549 8.101 1.625 18.303-6.498 22.808l-63.03 35.198a16.825 16.825 0 01-22.852-6.498l-.542-1.105c-4.549-8.1-1.624-18.292 6.498-22.797l63.031-35.198c8.123-4.505 18.303-1.603 22.852 6.498M17514.677 9111.011l.538 1c4.514 8.104 1.612 18.412-6.45 22.905l-63.092 35.104c-8.168 4.6-18.38 1.601-22.894-6.503l-.537-1c-4.514-8.104-1.612-18.304 6.449-22.904l63.092-35.094c8.062-4.503 18.38-1.601 22.894 6.492M17390.563 9187.398l.64.993c4.483 8.1 1.602 18.399-6.51 22.902l-63.072 35.101c-8.11 4.6-18.356 1.697-22.839-6.403l-.64-1.1c-4.482-8.1-1.6-18.292 6.51-22.795l63.18-35.208c8.11-4.493 18.249-1.59 22.731 6.51M17196.87 8839.718l.529 1.108c4.643 8.094 1.688 18.3-6.438 22.795l-63.004 35.206c-8.126 4.496-18.363 1.594-22.9-6.5l-.634-1.109c-4.432-8.094-1.583-18.3 6.543-22.795l63.11-35.206c8.02-4.496 18.257-1.594 22.795 6.5M17326.034 8772.618l.638 1.095c4.466 8.102 1.595 18.31-6.486 22.807l-63.157 35.194c-8.081 4.508-18.288 1.606-22.754-6.497l-.638-1.095c-4.466-8.102-1.595-18.298 6.486-22.807l63.158-35.194c8.08-4.497 18.288-1.605 22.753 6.497M17455.907 8700.177l.643.996c4.499 8.098 1.607 18.404-6.535 22.903l-63.095 35.093c-8.034 4.5-18.318 1.607-22.924-6.491l-.536-1.007c-4.5-8.099-1.607-18.393 6.534-22.893l63.096-35.104c8.034-4.499 18.318-1.596 22.817 6.503" class=" ns-fill-9" fill="#184655"/>
    <path d="M17597.36 8714.723l109.31 196.106 22.188-11.802-109.854-197.105-21.644 12.801M17747.61 8625.694l113.25 203.194 9.319-4.9-113.47-203.699-9.1 5.405M17885.36 8544.136l117.02 209.897 9.283-5.006-117.242-210.294-9.06 5.403M18002.475 8474.576l120.138 215.504 9.344-4.906-120.25-215.993-9.232 5.395M18119.832 8405.102l123.176 221.202 9.406-4.995-123.512-221.604-9.07 5.397M18227.888 8341.103l126.178 226.31 9.351-4.9-126.403-226.806-9.126 5.396M18335.919 8276.96l129.094 231.508 9.407-4.908-129.32-231.995-9.181 5.395M18427.508 8222.799l131.459 236 9.341-4.99-131.687-236.399-9.113 5.389M18518.852 8168.603l134.07 240.4 9.274-5.004-134.185-240.8-9.159 5.404M18607.335 8116.19l136.333 244.605 9.319-4.901-136.563-245.1-9.089 5.395M18689.98 8067.202l138.684 248.603 9.246-5.005-138.8-248.995-9.13 5.397M18768.316 8020.928l140.552 252.298 9.401-4.898-140.9-252.797-9.053 5.397M18909.384 7937.333l144.436 259.096 9.356-4.9-144.67-259.599-9.122 5.403M18978.426 7896.436l146.264 262.395 9.391-4.895-146.616-262.9-9.04 5.4M19034.555 7863.113l147.764 265.197 9.301-5.004-148-265.597-9.065 5.404M19093.675 7827.963l149.295 267.998 9.449-4.996-149.65-268.4-9.094 5.398" class=" ns-fill-11" fill="#96d9c9"/>
    <path d="M17304.81 9097.187l8.072 14.604-42.38 23.6-8.072-14.604 42.38-23.6M17227.083 8957.9l5.603 10-37.848 20.997-5.498-9.906 37.743-21.092M17434.468 9025.592l6.206 11.095-45.474 25.402-6.206-11.107 45.474-25.39M17356.52 8885.82l8.522 15.202-40.803 22.799-8.522-15.203 40.802-22.798M17564.719 8958.659l7.007 12.505-39.24 21.894-7.007-12.602 39.24-21.797M17479.034 8801.309l4.183 7.4-36.146 20.198-4.29-7.401 36.253-20.197" class=" ns-fill-0" fill="#fff"/>
    <path d="M18835.76 7980.919l142.348 255.598 9.436-4.997-142.698-256.006-9.086 5.405" class=" ns-fill-11" fill="#96d9c9"/>
    <path d="M19568.162 7445.605c1.783-4.202-59.342-17.408-114.609-33.3-55.394-15.905-146.444-16.096-142.114-29.404 3.31-10.403 59.214-16.49 110.788-12.492-12.862-5.501-18.847-10.799-11.97-15.205 28.015-18.006 189.231-7.895 337.204 55.102 147.973 62.996 1009.448 535.897 922.09 668.996-32.09 49.002-170.002 190.2-248.828 287.4l-225.651-175.695 116.137-126.808c-178.026-190.594-450.413-397.297-464.42-407.294-37.694-26.996-110.28-3.705-126.707-3.298-89.65 2.394-205.15 3.4-224.378-26.602-19.229-30.104 64.053-19.903 113.845-35.197 49.663-15.307-115.373-145.91-286.904-135.111-171.531 10.913 22.412-65.697 78.952-50.492 56.668 15.205 163.764 46.098 166.565 39.4M18405.24 8205.967l-436.244 158.603c-17.282 6.299-28.765 22.796-28.651 41.191.227 35.405-.114 65.5-3.638 75.3-30.016 85.304-40.02 203-74.129 214.7-34.222 11.608-6.367-68-11.256-120.698-4.775-52.595-170.654 78.506-196.122 250.104-25.24 171.598-46.046-67.807-18.873-119.8 27.173-52.105 65.829-120.299 59.69-124.699-3.753-2.797-28.993 59.792-56.62 110.5-27.628 50.695-34.79 144.402-47.183 136.99-10.12-5.992-11.824-73.197.91-126.69-9.778 14.69-17.85 21.795-21.148 12.995-14.098-37.598 20.692-262.599 203.74-417.098 185.094-156.101 655.673-486.098 756.406-439.7l-126.883 348.302M12527.6 12522.3s9.3 26 1.8 82.4c-9.2 69.8-35.7 173.7-39.6 182.7-7.1 16.3 210.6 114 210.6 114s360.7 61.6 409.9 108.5c49.2 46.9 92.6 69 72.4 24-36.5-81.3-129.6-205.3-151.4-223.3-21.9-18-295.3-122.3-300.4-122.9-5-.6 17.7-177.6 17.7-177.6l-221 12.2" class=" ns-fill-12" fill="#f7a491"/>
    <path d="M12754.1 12625.8s-239.7 12.1-241.2-11.9c-33.2-531.1-28.9-704.8-38.8-711.5-33.5-22.6-598.2 365.5-686.1 384.9-42.1 9.2-85.8 1.6-127.8-4.6-100.2-14.9-66.6-8.5-119.3-17.4l.1-.1c-2.9-.5-4.5-.8-4.5-.8l11.8-94.5c125.4-88.5 567.8-1601.1 589.5-1597.5 24.3 4 552-64.1 537.9-22-2.3 6.8-381.9 248.9-528.5 645.8-49.2 133.2-83 279-116.2 406.1 120.6-43.5 591.3-209.6 658.4-172.3 208.5 115.9 64.7 1195.8 64.7 1195.8" class=" ns-fill-6" fill="#355389"/>
    <path d="M13961.8 9990.1s521.1-316.9 544.9-381.2c34.2-92.7 455.9 84.5 348.3 91.4-24.7 1.6-104.6 12.1-111.3 14.7-36.3 14.2-521.2 475.1-521.2 475.1l-260.7-200" class=" ns-fill-12" fill="#f7a491"/>
    <path d="M15059.8 9724.6l-307.4-11.3s-78.4-82.4-245.3-105.6c0 0-17.6-79.5 5.7-167.3 4-15.2 12.1-61.4 27.5-58.5 55.8 10.5 201.2 65.5 367.9 119.9 0 0 223.7 75.9 346.8 170.9 123.1 95-195.2 51.9-195.2 51.9" class=" ns-fill-1" fill="#f7cc7f"/>
    <path d="M11714.3 10673.4s356.1-17.2 731.6 118.9c434.4 157.6 917 312.8 1071.7 245.9 124.6-53.9 982.7-1067.1 982.7-1067.1l-256.6-238.4-907.7 802.1s-977.4-498.5-1212-483.9c-534.1 33.1-591.1 449.8-409.7 622.5" class=" ns-fill-3" fill="#22636b"/>
    <path d="M12069.7 10940.6l398.6-373.7-624.6-274.4-129.4 380.9 355.4 267.2" class=" ns-fill-3" fill="#22636b"/>
    <path d="M13004.7 9128.5s47.2-579.2 45.6-678.4c-1.5-98.8 291-361.1 246-263.1-10.4 22.5-39.1 97.8-40 105-4.7 38.6 13 707.8 13 707.8l-264.6 128.7" class=" ns-fill-12" fill="#f7a491"/>
    <path d="M13415 8018.4l-156 265s-109.8 30-209.5 165.7c0 0-78.4-22.2-144.5-84.5-11.5-10.7-89.3-83.2-81.7-96.8 28.2-50.4 157.7-150.1 299.4-258.9 0 0 197.2-123.8 339.3-187 142.1-63.2-47 196.5-47 196.5" class=" ns-fill-1" fill="#f7cc7f"/>
    <path d="M13435.7 10332.5c-141.4 148.3-1145.1 186-1145.1 186l-337.4 495.5-563.1-446.7s118.1-476.3 179-600.1c81.2-164.9 490.5-125.2 739.6-93 229.2 29.5 653.8 32.5 653.8 32.5l6.7-1267.4s286.1-30.3 363.2-10.8c8.7 2.2 279.2 1519.5 103.3 1704" class=" ns-fill-2" fill="#f47458"/>
    <path d="M11540 12263.9l-340.5-59.4s-7.6-3.7-9.9-4.4c-27.3-8.5 116.6-1004.4 185.8-1374.6 69.2-370.1 138.3-520.8 138.3-520.8s455.1 137.7 591.2 210c56.4 30 178.5 226.2 178.5 226.2s-169.8 179.4-281.5 490.4c-86.1 239.8-208.1 668.6-259.1 755.1-117 198.6-202.8 277.5-202.8 277.5" class=" ns-fill-11" fill="#96d9c9"/>
    <path d="M11173.4 12507.9l26.1-303.8s267.3-356 374.9-289.2c90.3 56.1-29.1 336.8-29.1 336.8s-24.5 64.8-56.5 138.6c-22.4 51.7-42.6 108.1-46.7 150.7-9.9 103.8-268.7-33.1-268.7-33.1" class=" ns-fill-12" fill="#f7a491"/>
    <path d="M11356.5 13229.7s133.3-157.1 158.8-299.5c25.5-142.5 6.7-244 6.7-244l-414.3 390.7 248.8 152.8" class=" ns-fill-9" fill="#184655"/>
    <path d="M11549.4 12964c11-49.6-3.4-95.1-32.2-101.5-28.8-6.5-61.2 28.5-72.3 78.2-11 49.6 3.4 95 32.2 101.5 28.8 6.4 61.2-28.6 72.3-78.2" class=" ns-fill-8" fill="#f48c7f"/>
    <path d="M10998.5 12993.5c-8.5.8 41.9-416.7 174.5-500.6 132.7-83.9 344.4-67.5 394.2 38.8 55 117.5-61.9 549.8-253 621.9-191.1 72.1-315.7-160.1-315.7-160.1" class=" ns-fill-12" fill="#f7a491"/>
    <path d="M10937.1 13248.8c-82.8-92-120.5-156.5-165.9-307.9-55.9-186.2 118.4-351.6 254.9-409.4 136.6-57.7 158.1-145.9 158.1-145.9l-1.6 56.3c.4 43.9-15.6 67-31 91.7-13.6 22-58.1 97.6-74.2 117-42.6 51.2-51.1 62.4-39.6 117.2 8.9 42.3-17.6 129.9-4.4 199.3l167.8 57.6s104.6 38.7 151.5 107.9c134.9 198.7-197.8 363-415.6 116.2" class=" ns-fill-9" fill="#184655"/>
    <path d="M11084.2 12727c26.6-43.3 27.8-91 2.6-106.4-25.1-15.5-67.1 7-93.8 50.3-26.6 43.3-27.8 91-2.6 106.5 25.1 15.5 67.1-7.1 93.8-50.4" class=" ns-fill-12" fill="#f7a491"/>
    <path d="M9774.53 13739.7c29.1-78.1 79.46-200.9 79.46-200.9 1.35-35.3 8.29-181.9 17.15-361.4l249.36 135.8s-37.6 289.9-28 309c8.1 16.2 26.9-.5 93.6 123.8 19.2 35.9 16.5 95.7 16.5 95.7s-3.9 73.4-21 78.3c-17.2 4.8-34.7-8.3-39.1-21.6-4.5-13.3.5-42.5-3.9-55.7-4.4-13.3-40.5-33-56.5-34.1-16.1-1.1-23.6 215.8-23.6 215.8s1.6 62 3.8 82.5c1.8 17.5 11.4 69.1 11.4 69.1s9.6 74.5-13.6 77.4c-13.6 1.6-40.3-61.1-56.1-126.2-16.89-70.1-22.54-143-29.78-142.9-16.98.3-22.11 119.1-22.11 119.1s10.26 56 6.82 81.4c12.03 33.1 15.6 92.2-12.67 93.7-5.22.3-33-77.6-33-77.6s-8.2-53.5-13.69-78.7c-9.69-44.4-3.93-112-8.1-142.7-3.47-25.4-10.45-16-12.97-17.3-1.95-1.1-2.42 33.5-3.9 80.8-.74 23.9-6.69 50.8-3.28 78.4 3.16 25.7 2.44 61.7 1.47 83.4-2.74 61.5-40.36 50.7-47.01-6.6-2.54-21.8-5.11-45.6-7.62-69.7-9.76-93.8 1.26-181.7-8.5-183.6-12.67-2.5-23.26 158.7-23.26 158.7s-30.15 86.4-39.87 1.7c-11.28-98.1.32-175.7 1.03-179.1 4.84-23.1-2.13-108.5 26.97-186.5" class=" ns-fill-17" fill="#f8a492"/>
    <path d="M11199.1 12203.9s-341.3-24.3-433.7 5c-56 17.7-534.4 317.8-534.4 317.8l-106.9 942.6-309.87-13s-35.67-1060.3 33.02-1167.7c70.92-110.9 767.65-519.7 920.35-714.8 88.1-112.4 353.8-1633.9 378.8-1646 175.6-66.5 779.9-199.6 761.7-148.8-503.7 1403.5-709 2424.9-709 2424.9" class=" ns-fill-6" fill="#355389"/>
    <path d="M12642.4 12785s89.7 51.7 114 63.1c24.3 11.5 103.5 36.3 103.5 36.3s110.4 144 142.1 151.2c31.7 7.2-56.7-149.7-56.7-149.7l-38.9-47.4s63.7 69.2 76.2 79.3c12.5 10 100.6 176.2 128.8 169.3 28.2-6.9-31.6-123.6-60.2-185.2-28.6-61.5-186.4-116.2-186.4-116.2l-222.4-.7" class=" ns-fill-12" fill="#f7a491"/>
    <path d="M12943.8 13078.6c-2.3 2.6-235.8 257.8-682.2 414.9-637.1 224.3-1729.3-21.5-2053.5 681.7-57.8 125.4-60.5 223.6-60.6 227.7-.3 15 22.4 15.5 22.7.5 0-1 2.8-98.4 59-219.7 318.3-687.6 1399.3-443.3 2040-668.8 320.5-112.8 583.9-301.7 691.5-421.1 10-11.2-6.9-26.4-16.9-15.2" class=" ns-fill-18" fill="#86b1f2"/>
    <path d="M12934.9 13199.1c-8.8 9.6-220.9 237.5-618.7 378.2-433.4 154-1100 116.3-1500.6 295.6-243.3 108.9-362.3 264.9-419.3 376.5-61.9 121.4-65.9 215.8-66.1 219.8-.5 15 22.2 15.8 22.7.8.1-1.4 4.3-94.6 64.2-211.4 55.4-108 171-259 407.8-365 396.5-177.4 1061.8-139.6 1498.9-294.9 403.1-142.6 618.9-374.5 627.9-384.3 4.2-4.6 3.9-11.8-.7-16-4.6-4.2-11.8-3.9-16.1.7" class=" ns-fill-18" fill="#86b1f2"/>
    <path d="M12926 13319.7c-94.5 103-290 246.8-555.3 341.4-418.7 150.2-987.8 146.2-1345.5 296.2-254.8 106.9-380.4 257.9-440.9 365.7-66 117.5-71.2 208.7-71.4 212.5-.7 14.9 22 16.1 22.7 1.1.1-.9 5.3-90.6 69.1-203.6 58.9-104.4 181.1-250.7 429.3-354.7 180.6-75.8 414.6-111.5 662.3-149.3 234-35.7 475.9-72.6 682-146.5 269.2-96 468.1-242.5 564.4-347.5 10.2-11.1-6.5-26.4-16.7-15.3" class=" ns-fill-18" fill="#86b1f2"/>
    <path d="M12917.1 13440.2c-404.8 441.3-1224.7 423.7-1682.3 601.6-266.6 103.6-398.9 249.7-462.9 354.1-69.9 113.8-76 202.2-76.2 205.9-1 15 21.7 16.3 22.6 1.4.1-1.6 6.6-88 73.7-196.8 62.3-100.9 191.1-242.5 451-343.5 456.1-177.3 1279.5-159 1690.8-607.3 4.2-4.7 3.9-11.8-.7-16.1-4.6-4.2-11.8-3.9-16 .7" class=" ns-fill-18" fill="#86b1f2"/>
    <path d="M11157.1 14335.3c-37.5 39.2-85 153.2-113.4 221.4-38.2 91.6-33.6 72.8-48.1 80.2-30.5 6-4.8-16-247.9-513-100.7 131.7-389.4 99.4-388.5-53.7.4-79.1 83.9-149.8 196.5-149.2 78.2.4 148.5 36.3 179.1 91.3l-.2.1c8 14.5 113.7 230.4 200.8 405.3 30.3-115.7 166.3-199.9 251.2-143.9l25.7 16.9-26 16.4c-9.1 5.7-27.8 26.7-29.2 28.2M12727.1 13860.1c-46.2 13.2-133.8 79.6-186.2 119.3-55.4 41.9-61.2 46.3-74.9 40.5-28.9-9.7 1.1-23.1 36.7-510.6-138.3 52.8-343.9-96.6-273.9-215.1 74-125.4 322.6-30.2 319.4 125.2h-.1c-.4 14.8-15.8 262.2-27 432.5 76.8-72.3 217.2-110.6 257.7-29l13.6 27.5c-35.5 2.7-20.3-3.4-65.3 9.7M11973.3 13856.7c-.6 20.6-15.6 245.3-33.8 521.2-289.9-30.8-279.9-33.6-547 8.9 9-141.8 18.6-284.2 26.8-398.7-140.4 53.5-314.7-110.9-245.6-227.9 74.6-126.3 308.7 6.2 305.6 160.8 0 0-15.7 123.3-29.1 320l451.5-4.1c4.1-60.9 9.1-180.4 17.7-297.1-139.7 53.2-334.7-90.8-265.3-208.3 38.2-64.7 137.5-77 221.4-27.4 60.7 35.8 99.2 95.7 98 152.6h-.2" class=" ns-fill-5" fill="#466eb6"/>
    <path d="M17821.736 15165.331c-45.73-14.47-155.525-7.511-221.027-3.424-69.368 4.418-76.547 4.86-84.721-7.511-18.889-24.08-17.01-23.638 281.889-410.352-144.369-32.474-202.58-265.54-78.867-325.63 130.892-63.624 285.644 152.984 197.167 280.784l-.22-.11c-8.396 12.15-138.294 180.378-241.793 316.13 104.051-17.894 222.573 57.328 211.306 147.683l-3.866 30.486c-31.039-17.341-15.022-14.138-59.868-28.056" class=" ns-fill-19" fill="#50bfa5"/>
    <path d="M11954.432 16051.503c2.146 20.538 17.677 245.128 36.989 520.909-291.517 8.787-282.014 4.598-540.834 82.765-10.32-141.62-20.027-284.058-27.281-398.6-131.913 72.036-326.769-67.438-274.249-192.608 56.812-135.285 315.733-72.751 333.41 80.824l-.102.102c1.533 14.1 9.298 139.066 22.684 335.76l406.979-60.183c-4.087-60.797-9.298-140.394-16.655-257.287-131.198 71.628-326.973-66.825-274.147-192.607 29.121-69.175 125.885-94.822 215.7-57.118 64.986 27.384 111.171 81.538 117.813 138.043h-.307" class=" ns-fill-11" fill="#96d9c9"/>
    <path d="M6719.26 14434.3l150.26-121.9 177.36 86.4 158.75-148.6 160.53 150.4 186.95-160.1 164.88 120.2 205.05-124.6-47.17-77.6-153.31 93.1-173.99-126.8-179.7 153.9-163.21-152.9-175.19 164-173.2-84.4-139.27 112.9-102.15-79.2-55.67 71.8 159.08 123.4" class=" ns-fill-20" fill="#9bc1f9"/>
    <path d="M18297.228 11223.91c2.828-14.618 8.146-28.399 14.709-41.75 24.1 22.606 59.968 40.721 112.581 39.692 6.11 19.223 12.22 38.48 18.443 57.705-42.77 1.98-106.584-5.058-145.733-55.646M18412.645 10961.892c26.663 77.515 53.893 159.749 81.009 241.36-3.517 2.076-5.786 3.346-5.446 3.074-21.103 9.576-24.28 9.87-24.053 9.814-15.657 4.72-28.591 5.299-28.365 5.287-3.97.261-7.601.352-11.232.42-28.478-89.076-56.048-177.403-81.69-258.026 23.032-4.55 46.858-5.06 69.777-1.929M18217.551 10623.638c.339.564-38.8-66.457-92.376-59.96 0 0-61.584 5.707-28.085 67.54 0-.147 1.692 4.95 1.692 5.097 3.835 11.02-1.692 23.168-12.97 27.77-11.731 4.827-23.236-1.546-30.342-11.979-3.834-5.73-9.136-15.599-10.49-32.788-8.571-100.474 112.228-132.62 182.497-70.822 43.875 38.045 98.805 169.615 157.456 334.313-21.769 1.252-43.65 4.14-65.193 8.865-43.086-133.183-79.18-235.474-102.189-268.036" class=" ns-fill-6" fill="#355389"/>
    <path d="M18342.833 10963.814a25520.828 25520.828 0 00-23.044-72.137c21.463-4.722 43.377-7.614 65.179-8.856 9.036 25.63 18.412 52.052 27.675 79.073-22.931-3.14-46.653-2.621-69.81 1.92M18443.056 11279.602c26.336-1.22 44.92-5.837 44.806-5.826a222.872 222.872 0 0026.336-8.813c23.486 70.356 46.858 139.23 69.432 202.96-32.037-9.69-61.451-19.837-88.358-30.326-17.557-51.384-34.887-104.536-52.216-157.995" class=" ns-fill-6" fill="#355389"/>
    <path d="M18532.205 11543.556c-12.339-34.044-24.677-69.574-37.015-106.018 26.961 10.51 56.436 20.564 88.425 30.389 12.91 36.444 25.704 71.288 38.157 103.734-29.59-10.168-59.521-19.308-89.567-28.105" class=" ns-fill-6" fill="#355389"/>
    <path d="M18192.973 11133.849c-4.32 33.824-3.07 185.969 302.198 303.654 12.393 36.495 24.672 71.968 36.951 106.076-35.473-10.46-71.059-20.578-106.077-32.061-84.474-27.628-171.677-61.623-236.71-121.426-84.816-77.903-106.532-193.245-81.064-300.254 13.075-55.687 42.749-108.942 90.5-144.87 35.245-26.444 77.198-43.658 120.97-53.299a10174.796 10174.796 0 0123.08 72.139c-71.513 14.087-136.66 66.886-149.848 170.04M18886.617 11755.49c-9.39 79.525-91.697 205.304-192.9 120.563-45.79-38.256-102.593-168.903-161.483-332.415 30.14 8.822 60.05 17.898 89.61 28.1 63.759 166.48 119.983 272.32 158.122 229.08 22.605-25.736 32.575-70.483 13.91-114.767-19.822-47.297-71.757-74.54-118.358-94.119-17.621-7.35-35.59-13.957-53.674-20.194-12.52-32.494-25.156-67.318-38.14-103.753 13.796 4.208 27.939 8.358 42.777 12.416 92.74 25.55 186.987 84.323 223.62 137.255 0-.116 45.674 60.165 36.516 137.835M18512.333 11190.218c-3.1 2.64 22.954-17.525 35.234-43.842-5.394 10.605 36.039-48.652-15.608-119.144-26.053-35.705-70.814-58.694-119.247-65.328a6722.492 6722.492 0 00-27.775-79.065c3.558-.195 7.001-.39 10.559-.505 256.857-8.493 312.177 304.246 118.673 382.589-6.771-20.464-13.658-41.03-20.544-61.655 5.624-3.317 14.117-8.677 18.708-13.05" class=" ns-fill-6" fill="#355389"/>
    <path d="M18442.975 11279.573c-6.134-19.219-12.267-38.483-18.4-57.712 3.634-.068 7.269-.148 11.244-.42-.227.01 12.721-.557 28.396-5.27-.227.045 2.84-.25 24.08-9.826-.454.273 1.93-1 5.338-3.067 6.815 20.627 13.744 41.197 20.559 61.654-8.292 3.385-17.151 6.36-26.351 8.825 0-.011-18.401 4.6-44.866 5.816M18393.04 11156.56c-9.822-44.516-43.466-74.943-75.191-67.954-31.726 6.988-49.451 48.739-39.629 93.256 9.823 44.528 43.467 74.943 75.192 67.955 31.613-6.989 49.451-48.74 39.629-93.256M18162.081 10610.122c-9.81-44.516-43.478-74.94-75.14-67.95-31.773 7.001-49.499 48.741-39.8 93.268 9.922 44.515 43.59 74.94 75.252 67.95 31.662-6.99 49.499-48.741 39.688-93.268" class=" ns-fill-6" fill="#355389"/>
    <path d="M5866.28 4968.9v1143.6c0 1155.2 936.47 2091.7 2091.68 2091.7h1143.58c1155.16 0 2091.66-936.5 2091.66-2091.7V4968.9c0-1155.2-936.5-2091.7-2091.66-2091.7H7957.96c-1155.21 0-2091.68 936.5-2091.68 2091.7" class=" ns-fill-3" fill="#22636b"/>
    <path d="M7150.66 9103.2c6.34 206.9-69.74 2240.5 444.34 3848.7 350.43 1098.3 740.41 1572.9 1207.61 1957.1 21.25 16.7 42.18 33.7 63.63 50.1 21.57 16.1 42.94 32.5 64.86 48 6.72 4.8-24.33-17.2 65.7 46.5 1524.4 1058.1 4613 1106.2 5909.4-491.5 473.6-574.8 787.4-1501.6 924.6-2240 239-1283.4 171.6-2687.4 138.2-4069.3h-624.9c-112.3 1717.9 71.5 3875.8-721.7 5458.2l-29.7 58c-35.2 41.1-458 1071.2-1823.8 1565-1722.6 582.1-3492.67-262.6-4085.82-1827.6-540.88-1387.5-488.94-3013.9-490.17-4403.2H7150.66" class=" ns-fill-2" fill="#f47458"/>
    <path d="M8586.76 7413.5H6685.74v2741.4h1901.02V7413.5" class=" ns-fill-2" fill="#f47458"/>
    <path d="M8586.76 8580.8c-136.87 27-278.36 41.2-423.15 41.2h-982.62c-170.38 0-336.18-19.6-495.25-56.7V7413.5h1901.02v1167.3" class=" ns-fill-3" fill="#22636b"/>
    <path d="M8480.06 14850.6c44.24-82.8 135.9-120.8 206.71-84.9 71.9 36.6 94.99 135.5 51.56 221-43.43 85.5-136.92 125.2-208.83 88.7-18.76-9.6-34.1-23.4-45.9-40.1l-114.19 245.5 418.96 73.5 195.26-419.9c.25-.5.42-1 .67-1.5 43.43-85.5 136.93-125.2 208.83-88.7s94.99 135.5 51.57 221c-43.43 85.5-136.93 125.2-208.84 88.6-18.71-9.5-34.03-23.3-45.83-39.9l-209.12 449.7c-6.76 14.6-21.32 23.1-34.67 20.4l-521.79-105.7c-17.43-3.6-25.41-24.4-16.58-43.4l271.78-584.4.41.1" class=" ns-fill-19" fill="#50bfa5"/>
    <path d="M5302.07 4884.3V6197c0 1108.5 898.61 2007.2 2007.11 2007.2h890.72c1108.51 0 2007.1-898.7 2007.1-2007.2V4884.3c0-1108.5-898.59-2007.1-2007.1-2007.1h-890.72c-1108.5 0-2007.11 898.6-2007.11 2007.1" class=" ns-fill-2" fill="#f47458"/>
    <path d="M6068.78 5476.2v581c0 586.9 475.78 1062.7 1062.67 1062.7h580.99c586.89 0 1062.66-475.8 1062.66-1062.7v-581c0-586.8-475.77-1062.6-1062.66-1062.6h-580.99c-586.89 0-1062.67 475.8-1062.67 1062.6" class=" ns-fill-3" fill="#22636b"/>
    <path d="M5567.75 5476.2v581c0 586.9 475.78 1062.7 1062.67 1062.7h580.99c586.89 0 1062.66-475.8 1062.66-1062.7v-581c0-586.8-475.77-1062.6-1062.66-1062.6h-580.99c-586.89 0-1062.67 475.8-1062.67 1062.6" class=" ns-fill-2" fill="#f47458"/>
    <path d="M21263.788 10673.821c30.919-83.241 84.627-214.286 84.627-214.286 1.6-37.596 8.93-193.923 18.391-385.46l266.01 144.892s-39.982 309.189-29.853 329.606c8.662 17.272 28.653-.613 99.686 132.031 20.524 38.303 17.725 102.02 17.725 102.02s-4.264 78.363-22.522 83.52c-18.259 5.185-36.917-8.822-41.714-23.002-4.665-14.194.666-45.286-4.132-59.466-4.664-14.193-43.18-35.17-60.238-36.356-17.059-1.186-25.188 230.266-25.188 230.266s1.732 66.115 4.131 87.945c1.999 18.631 12.128 73.739 12.128 73.739s10.262 79.43-14.527 82.481c-14.393 1.8-42.913-65.142-59.705-134.563-18.125-74.779-24.122-152.529-31.852-152.396-18.125.28-23.589 127.048-23.589 127.048s10.928 59.665 7.33 86.772c12.794 35.264 16.525 98.328-13.46 99.94-5.731.293-35.317-82.761-35.317-82.761s-8.796-57.04-14.66-83.908c-10.262-47.377-4.132-119.544-8.53-152.208-3.731-27.174-11.194-17.072-13.86-18.512-2.132-1.106-2.532 35.704-4.264 86.213-.8 25.442-7.064 54.135-3.465 83.655 3.465 27.307 2.665 65.769 1.599 88.931-2.799 65.556-43.047 54.042-50.11-7.05-2.799-23.269-5.464-48.644-8.13-74.378-10.395-100.02 1.333-193.803-9.062-195.842-13.594-2.625-24.922 169.334-24.922 169.334s-31.985 92.104-42.38 1.853c-12.128-104.738.267-187.486 1.066-191.138 5.198-24.602-2.265-115.652 28.787-198.92" class=" ns-fill-17" fill="#f8a492"/>
    <path d="M22953.34 9724.783s-131.485 138.69-237.333-30.107c0 0-81.499 45.805-138.79-35.693 0 0-147.242 44.301-182.907-175.902 0 0-75.912 14.309-85.795-75.798-10.026-90.106 35.807-150.106 35.807-150.106s-42.682-31.998-23.346-114.8c16.471-70.398 74.623-81.097 74.623-81.097s15.899-118.695 67.319-154.503c51.42-35.693 121.603-18.592 121.603-18.592s18.477-64.296 78.49-58.595c60.157 5.7 134.494 62.892 201.813 37.197 67.175-25.81 241.487 1.389 241.487 1.389s195.94 87.213 137.359 287.407c0 0 102.983 93 12.89 204.506 0 0 65.744 174.498-64.453 277.395-130.054 102.997-238.766 87.3-238.766 87.3" class=" ns-fill-21" fill="#07345a"/>
    <path d="M24091.95 10860.073l16.565-266.658-59.162-454.143-254.84-2.47s56.795 287.025 17.748 355.15c-30.764 53.615-68.628 136.56-71.586 166.585-9.614 102.38 351.275 201.536 351.275 201.536" class=" ns-fill-12" fill="#f7a491"/>
    <path d="M23762.884 10712.852l108.579-206.623c32.16-60.78 103.857-58.774 132.33 4.293l42.782 119.85s-182.931 156.022-283.69 82.48" class=" ns-fill-2" fill="#f47458"/>
    <path d="M22983.785 11108.063l544.157-55.563c27.827-2.813 52.29-18.867 65.746-42.933l261.91-472.22c33.485-60.561 123.235-56.968 151.826 6.101l221.852 491.653c11.315 25.044 34.402 43.01 61.77 48.07l537.735 99.016c68.957 12.705 93.267 97.654 40.977 143.752l-407.01 359.413c-20.64 18.317-31.037 45.471-27.368 72.656l70.332 533.408c9.021 68.421-65.592 117.333-126.292 82.748l-473.519-269.525c-24.157-13.73-53.666-14.923-78.741-3.165l-494.313 230.659c-63.452 29.585-133.784-25.152-119.106-92.625l114.366-525.993c5.81-26.787-1.987-54.69-21.252-74.598l-375.819-390.863c-48.162-50.134-17.124-132.866 52.75-139.991" class=" ns-fill-1" fill="#f7cc7f"/>
    <path d="M22047.523 3913.905s-143.367-177.706-179.004-199.498c-35.636-21.901 15.84-280.003 113.192-297.002 54.753-9.503 82.47 66.495 82.47 66.495l-12.971 58.699 204.81 210.9-208.497 160.406M22785.847 3870.008s-119.442-194.497-152.056-220.7c-32.614-26.303 51.532-275.692 150.22-280.097 55.486-2.5 73.276 76.494 73.276 76.494l-20.33 56.502 176.198 235.398-227.308 132.403" class=" ns-fill-12" fill="#f7a491"/>
    <path d="M22640.802 3656.897s68.687-87.512 106.14-122.308c48.335-45 110.238-88.897 110.238-88.897s70.1-127.198 89.321-171.604c42.54-98.79 90.452-208.986 83.527-264.289-2.12-17.808-42.117-36.605-75.33-26.302-138.504 42.499-492.397 366.302-537.199 453.192-51.444 100.303 223.303 220.208 223.303 220.208" class=" ns-fill-21" fill="#07345a"/>
    <path d="M23651.356 6620.01c-12.852 36-25.265 69.298-37.095 100.61-147.21-32.1-313.552-67.501-484.567-103.91l-20.884-627.104c0 48.398 128.663-1000.198 128.663-1000.198s-302.6-728.501-529.987-1157.5c93.467-116.497 118.002-133 253.237-212.403 352.984 423.098 803.961 1168.905 823.093 1297.7 11.1 74 21.03 1271.106-132.46 1702.806" class=" ns-fill-10" fill="#3c8f7c"/>
    <path d="M22337.031 6438.681c44.982-488.6 145.02-1422.793 136.649-1497.9-25.116-93.696-451.807-958.088-531.98-1083.895 63.571-95.796 157.366-185.902 263.081-214.495 21.001-5.704 741.848 1025.902 781.864 1108.799 45.265 93.795 120.756 605.2 122.033 1238.395l20.859 627.094c-285.075-60.803-547.163-120.4-792.506-177.998" class=" ns-fill-19" fill="#50bfa5"/>
    <path d="M23273.233 8666.027l-335.594-46.004s-268.853-6.601-302.223-6.601c-33.224 0-243.935-1224.005-304.992-1684.61-60.91-460.593-13.697-542.196-13.697-542.196s425.356-95.709 740.111-67.803c327.288 28.998 695.522 205.698 695.522 205.698s-263.753 864.906-319.127 1141.308c-55.52 276.402-160 1000.208-160 1000.208" class=" ns-fill-2" fill="#f47458"/>
    <path d="M24086.906 10148.773s21.446-912.553-13.016-982.349c-49.991-101.61-613.505-821.606-613.505-821.606s269.333-1126.304 382.331-1515.203c11.389-39.194 61.972-292.199 61.972-316.899 0-54.695-238.125-124.106-266.375-120.01-25.291 3.713-233.097 1075.115-365.767 1599.42-44.962 177.588-122.02 345.489-227.476 495.3l-92.292 131.088 707.869 709.407s87.263 789.748 87.263 855.166c0 17.157 304.534 30.024 338.996-34.314M22647.568 8614.972l-882.8 899.397s-122.95 850.445-131.611 882.474c-8.66 31.462-227.87 48.485-316.179 57.089-28.395 2.768 14.908-905.858 57.074-1058.168 49.976-179.897 717.116-999.59 717.116-999.59s119.543-444.097 90.722-769.703c-47.704-540.996-176.759-1285.087-153.617-1308.385 143.395-90.41 693.974-100.106 728.9-43.913 384.752 619.707-109.605 2340.799-109.605 2340.799" class=" ns-fill-5" fill="#466eb6"/>
    <path d="M22931.216 8783.107l23.855-176.699s53.357-254.603-15.386-303.598c-68.602-49.108-291.77 310.797-291.77 310.797l23.574 447.705 259.727-278.205" class=" ns-fill-12" fill="#f7a491"/>
    <path d="M22663.711 8916.188c56.745-152.69 191.778-246.495 287.667-282.893l-20.135 149.803-259.928 278.19-7.604-145.1" class=" ns-fill-2" fill="#f47458"/>
    <path d="M22306.115 9365.578c0-68.21 38.753-123.512 86.608-123.512 47.854 0 86.607 55.302 86.607 123.512 0 68.197-38.753 123.499-86.607 123.499-47.855 0-86.608-55.302-86.608-123.499M22565.923 9630.97c0-39.195 47.23-70.999 105.36-70.999 58.269 0 105.359 31.804 105.359 71 0 39.11-47.09 70.9-105.36 70.9-58.129 0-105.359-31.79-105.359-70.9" class=" ns-fill-21" fill="#07345a"/>
    <path d="M22830.033 9531.735c139.398 47.901 287.89-44.605 309.063-188.209 9.237-62.395 17.62-140.89 19.183-226.689 3.695-206.312-103.163-407.21-196.805-407.21-93.643 0-352.688 133.6-362.066 426.607-5.684 180.905 84.548 345.198 230.625 395.5" class=" ns-fill-12" fill="#f7a491"/>
    <path d="M22668.41 9113.007c0-45.504-30.178-82.4-67.449-82.4-37.132 0-67.31 36.896-67.31 82.4 0 45.49 30.178 82.399 67.31 82.399 37.27 0 67.449-36.91 67.449-82.4" class=" ns-fill-12" fill="#f7a491"/>
    <path d="M23235.963 9634.306c96.907-76.608 130.739-193.112 75.834-260.202-55.048-67.003-178.045-59.205-274.81 17.504-96.763 76.594-130.738 193.098-75.69 260.187 54.904 67.004 177.902 59.206 274.666-17.489" class=" ns-fill-21" fill="#07345a"/>
    <path d="M22982.837 9571.477c0-33.402-40.185-60.404-89.816-60.404-49.632 0-89.817 27.002-89.817 60.404 0 33.29 40.185 60.292 89.817 60.292 49.631 0 89.816-27.002 89.816-60.292M23250.32 9315.005c0-42.792-34.234-77.496-76.74-77.496-42.222 0-76.598 34.704-76.598 77.496 0 42.906 34.376 77.61 76.598 77.61 42.506 0 76.74-34.704 76.74-77.61" class=" ns-fill-21" fill="#07345a"/>
    <path d="M23811.304 10594.94l47.59 75.716s82.546 72.882 60.808 102.052c-36.133 48.485-161.862-69.166-161.862-69.166s-13.954-105.372 53.464-108.603M24108.477 10593.4s22.206 180.58 17.913 185.954c-23.983 29.978-99.632 79.942-127.612 68.632-27.831-11.31 36.567-107.241 36.567-107.241s-40.416-8.365-48.558-43.91c-8.142-35.559 121.69-103.436 121.69-103.436" class=" ns-fill-12" fill="#f7a491"/>
    <path d="M21876.667 3721.103s56.778-95.597 89.456-134.906c42.21-50.788 98.034-102.297 98.034-102.297s53.102-135.097 66.582-181.595c29.683-103.4 63.178-228.298 49.29-282.298-4.493-17.306-42.618-50.406-74.07-30.01-121.455 79.109-445.785 449.311-479.008 541.205-38.26 106 249.716 189.9 249.716 189.9" class=" ns-fill-21" fill="#07345a"/>
  </g>
</svg>